<svg xmlns="http://www.w3.org/2000/svg" xmlns:xlink="http://www.w3.org/1999/xlink" width="1080" zoomAndPan="magnify" viewBox="0 0 810 809.999993" height="1080" preserveAspectRatio="xMidYMid meet" version="1.0"><defs><clipPath id="2a53c16bad"><path d="M 11.773438 11.773438 L 798.523438 11.773438 L 798.523438 798.523438 L 11.773438 798.523438 Z M 11.773438 11.773438 " clip-rule="nonzero"/></clipPath><clipPath id="87335c04d3"><path d="M 111 471 L 699 471 L 699 798.523438 L 111 798.523438 Z M 111 471 " clip-rule="nonzero"/></clipPath></defs><g clip-path="url(#2a53c16bad)"><path fill="#b3b3b3" d="M 798.558594 405.164062 C 798.558594 505.808594 760.792969 597.59375 698.601562 667.160156 C 626.582031 747.804688 521.8125 798.550781 405.171875 798.550781 C 288.53125 798.550781 183.726562 747.804688 111.738281 667.160156 C 49.550781 597.59375 11.785156 505.808594 11.785156 405.164062 C 11.785156 187.914062 187.890625 11.777344 405.171875 11.777344 C 622.417969 11.777344 798.558594 187.914062 798.558594 405.164062 " fill-opacity="1" fill-rule="nonzero"/></g><path fill="#f2f2f2" d="M 405.171875 477.628906 C 476.46875 477.628906 541.410156 396.960938 541.410156 308.386719 C 541.410156 224.703125 525.222656 141.949219 405.171875 141.949219 C 285.105469 141.949219 268.914062 224.703125 268.914062 308.386719 C 268.914062 396.960938 333.859375 477.628906 405.171875 477.628906 " fill-opacity="1" fill-rule="nonzero"/><g clip-path="url(#87335c04d3)"><path fill="#f2f2f2" d="M 698.601562 667.160156 C 626.582031 747.804688 521.8125 798.550781 405.171875 798.550781 C 288.53125 798.550781 183.726562 747.804688 111.738281 667.160156 C 110.492188 618.574219 142.847656 506.003906 307.871094 471.351562 C 336.101562 500.164062 370.847656 516.457031 405.171875 516.457031 C 439.492188 516.457031 474.210938 500.164062 502.433594 471.351562 C 667.496094 506.003906 699.820312 618.574219 698.601562 667.160156 " fill-opacity="1" fill-rule="nonzero"/></g></svg>