<svg xmlns="http://www.w3.org/2000/svg" xmlns:xlink="http://www.w3.org/1999/xlink" width="1080" zoomAndPan="magnify" viewBox="0 0 810 809.999993" height="1080" preserveAspectRatio="xMidYMid meet" version="1.0"><defs><clipPath id="b8eaf03a12"><path d="M 169 707 L 237 707 L 237 808.273438 L 169 808.273438 Z M 169 707 " clip-rule="nonzero"/></clipPath><clipPath id="05c3e26974"><path d="M 573 707 L 641 707 L 641 808.273438 L 573 808.273438 Z M 573 707 " clip-rule="nonzero"/></clipPath><clipPath id="614ee44226"><path d="M 573 2.023438 L 743 2.023438 L 743 438 L 573 438 Z M 573 2.023438 " clip-rule="nonzero"/></clipPath></defs><path fill="#000000" d="M 758.898438 403.542969 L 51.105469 403.542969 C 23.226562 403.542969 0.546875 426.242188 0.546875 454.125 C 0.546875 482.007812 23.226562 504.703125 51.105469 504.703125 L 758.898438 504.703125 C 786.769531 504.703125 809.457031 482.007812 809.457031 454.125 C 809.457031 426.242188 786.769531 403.542969 758.898438 403.542969 Z M 758.898438 470.976562 L 51.105469 470.976562 C 41.832031 470.976562 34.25 463.4375 34.25 454.125 C 34.25 444.816406 41.832031 437.261719 51.105469 437.261719 L 758.898438 437.261719 C 768.167969 437.261719 775.753906 444.816406 775.753906 454.125 C 775.753906 463.4375 768.167969 470.976562 758.898438 470.976562 Z M 758.898438 470.976562 " fill-opacity="1" fill-rule="nonzero"/><path fill="#000000" d="M 763.546875 471.625 C 754.414062 469.09375 745.25 474.25 742.71875 483.226562 L 696.273438 645.875 C 685.996094 681.851562 652.664062 707.003906 615.25 707.003906 L 194.785156 707.003906 C 157.371094 707.003906 124.074219 681.851562 113.761719 645.875 L 67.3125 483.21875 C 64.785156 474.25 55.589844 469.09375 46.484375 471.617188 C 37.519531 474.179688 32.359375 483.488281 34.921875 492.457031 L 81.371094 655.113281 C 95.757812 705.519531 142.375 740.71875 194.785156 740.71875 L 615.21875 740.71875 C 667.621094 740.71875 714.269531 705.519531 728.664062 655.113281 L 775.105469 492.457031 C 777.671875 483.527344 772.511719 474.1875 763.546875 471.625 Z M 763.546875 471.625 " fill-opacity="1" fill-rule="nonzero"/><path fill="#000000" d="M 194.785156 639.601562 C 187.304688 639.601562 180.660156 634.546875 178.570312 627.359375 L 156.699219 550.699219 C 154.167969 541.753906 144.90625 536.535156 135.871094 539.089844 C 126.9375 541.652344 121.746094 550.960938 124.308594 559.925781 L 146.183594 636.597656 C 152.316406 658.214844 172.335938 673.285156 194.785156 673.285156 C 204.089844 673.285156 211.640625 665.769531 211.640625 656.46875 C 211.640625 647.15625 204.089844 639.601562 194.785156 639.601562 Z M 194.785156 639.601562 " fill-opacity="1" fill-rule="nonzero"/><g clip-path="url(#b8eaf03a12)"><path fill="#000000" d="M 227.140625 708.753906 C 218.816406 704.679688 208.742188 707.945312 204.527344 716.316406 L 170.824219 783.742188 C 166.675781 792.070312 170.046875 802.1875 178.371094 806.371094 C 180.832031 807.582031 183.390625 808.152344 185.921875 808.152344 C 192.09375 808.152344 198.027344 804.75 200.988281 798.816406 L 234.691406 731.382812 C 238.835938 723.054688 235.464844 712.9375 227.140625 708.753906 Z M 227.140625 708.753906 " fill-opacity="1" fill-rule="nonzero"/></g><g clip-path="url(#05c3e26974)"><path fill="#000000" d="M 639.179688 783.773438 L 605.472656 716.339844 C 601.292969 707.984375 591.1875 704.640625 582.855469 708.785156 C 574.53125 712.96875 571.160156 723.085938 575.3125 731.414062 L 609.015625 798.847656 C 611.976562 804.75 617.910156 808.152344 624.082031 808.152344 C 626.605469 808.152344 629.164062 807.582031 631.625 806.402344 C 639.957031 802.21875 643.320312 792.109375 639.179688 783.773438 Z M 639.179688 783.773438 " fill-opacity="1" fill-rule="nonzero"/></g><g clip-path="url(#614ee44226)"><path fill="#000000" d="M 677.503906 1.9375 C 660.308594 1.9375 644.128906 8.652344 631.964844 20.824219 L 578.472656 74.335938 C 571.902344 80.910156 571.902344 91.597656 578.472656 98.171875 C 585.046875 104.746094 595.730469 104.746094 602.304688 98.171875 L 655.792969 44.691406 C 661.558594 38.898438 669.28125 35.695312 677.664062 35.695312 C 694.589844 35.695312 708.335938 49.445312 708.335938 66.378906 L 708.335938 420.40625 C 708.335938 429.714844 715.890625 437.261719 725.191406 437.261719 C 734.496094 437.261719 742.042969 429.714844 742.078125 420.382812 L 742.078125 66.339844 C 742.078125 30.839844 713.226562 1.9375 677.503906 1.9375 Z M 677.503906 1.9375 " fill-opacity="1" fill-rule="nonzero"/></g><path fill="#000000" d="M 619.191406 91.226562 L 585.484375 57.511719 C 581.613281 53.628906 576.253906 51.855469 570.828125 52.789062 L 486.566406 66.609375 C 480.363281 67.589844 475.269531 71.972656 473.289062 77.945312 C 471.296875 83.910156 472.8125 90.488281 477.199219 94.96875 L 578.3125 199.152344 C 581.476562 202.496094 585.894531 204.277344 590.378906 204.277344 C 591.957031 204.277344 593.578125 204.054688 595.199219 203.605469 C 601.191406 201.855469 605.746094 196.890625 606.957031 190.757812 L 623.8125 106.46875 C 624.921875 100.9375 623.171875 95.203125 619.191406 91.226562 Z M 580.125 152.65625 L 523.808594 94.628906 L 567.726562 87.445312 L 588.925781 108.660156 Z M 580.125 152.65625 " fill-opacity="1" fill-rule="nonzero"/><path fill="#000000" d="M 400.050781 206.199219 C 393.476562 199.625 382.792969 199.625 376.21875 206.199219 L 342.515625 239.914062 C 335.941406 246.492188 335.941406 257.179688 342.515625 263.753906 C 345.816406 267.027344 350.128906 268.679688 354.441406 268.679688 C 358.761719 268.679688 363.074219 267.027344 366.34375 263.753906 L 400.050781 230.039062 C 406.621094 223.460938 406.621094 212.78125 400.050781 206.199219 Z M 400.050781 206.199219 " fill-opacity="1" fill-rule="nonzero"/><path fill="#000000" d="M 467.457031 273.632812 C 460.882812 267.058594 450.199219 267.058594 443.628906 273.632812 L 409.921875 307.347656 C 403.351562 313.925781 403.351562 324.613281 409.921875 331.1875 C 413.226562 334.460938 417.539062 336.113281 421.851562 336.113281 C 426.167969 336.113281 430.480469 334.460938 433.753906 331.1875 L 467.457031 297.472656 C 474.03125 290.902344 474.03125 280.207031 467.457031 273.632812 Z M 467.457031 273.632812 " fill-opacity="1" fill-rule="nonzero"/><path fill="#000000" d="M 501.160156 172.480469 C 494.589844 165.90625 483.902344 165.90625 477.332031 172.480469 L 443.628906 206.199219 C 437.054688 212.78125 437.054688 223.460938 443.628906 230.039062 C 446.929688 233.308594 451.242188 234.960938 455.554688 234.960938 C 459.875 234.960938 464.1875 233.308594 467.457031 230.039062 L 501.160156 196.320312 C 507.734375 189.746094 507.734375 179.058594 501.160156 172.480469 Z M 501.160156 172.480469 " fill-opacity="1" fill-rule="nonzero"/></svg>