<svg xmlns="http://www.w3.org/2000/svg" xmlns:xlink="http://www.w3.org/1999/xlink" width="1080" zoomAndPan="magnify" viewBox="0 0 810 809.999993" height="1080" preserveAspectRatio="xMidYMid meet" version="1.0"><defs><clipPath id="650b18d8b0"><path d="M 111.582031 0 L 694.296875 0 L 694.296875 810 L 111.582031 810 Z M 111.582031 0 " clip-rule="nonzero"/></clipPath></defs><g clip-path="url(#650b18d8b0)"><path fill="#FFFFFF" d="M 694.148438 412.269531 C 694.148438 527.429688 694.808594 642.597656 693.382812 757.742188 C 693.1875 773.773438 687.238281 795.140625 676.015625 804.386719 C 658.15625 819.082031 641.027344 801.628906 626.191406 789.769531 C 560.519531 737.269531 494.289062 685.4375 429.671875 631.660156 C 411.828125 616.816406 401 615.152344 382.078125 630.621094 C 313.886719 686.359375 244.398438 740.566406 174.015625 793.503906 C 162.335938 802.285156 141.148438 808.34375 129.117188 803.589844 C 119.523438 799.804688 112.410156 777.644531 112.347656 763.609375 C 111.355469 529.289062 111.546875 294.960938 111.742188 60.636719 C 111.777344 17.597656 128.890625 0.285156 171.710938 0.207031 C 325.871094 -0.0742188 480.03125 -0.0585938 634.183594 0.191406 C 676.824219 0.257812 693.777344 17.496094 693.882812 60.78125 C 694.164062 177.945312 693.980469 295.105469 693.980469 412.269531 C 694.035156 412.269531 694.09375 412.269531 694.148438 412.269531 " fill-opacity="1" fill-rule="nonzero"/></g></svg>