<svg xmlns="http://www.w3.org/2000/svg" xmlns:xlink="http://www.w3.org/1999/xlink" width="1080" zoomAndPan="magnify" viewBox="0 0 810 809.999993" height="1080" preserveAspectRatio="xMidYMid meet" version="1.0"><defs><clipPath id="fd1e6e1dbd"><path d="M 79 213 L 774 213 L 774 577 L 79 577 Z M 79 213 " clip-rule="nonzero"/></clipPath><clipPath id="4e4b92fe47"><path d="M 94.296875 162.644531 L 798.53125 380.792969 L 715.976562 647.300781 L 11.742188 429.148438 Z M 94.296875 162.644531 " clip-rule="nonzero"/></clipPath><clipPath id="c4d84c298a"><path d="M 11.703125 429.273438 L 715.9375 647.421875 L 798.492188 380.914062 L 94.257812 162.765625 Z M 11.703125 429.273438 " clip-rule="nonzero"/></clipPath><clipPath id="2a08015f9c"><path d="M 570 310 L 774 310 L 774 603 L 570 603 Z M 570 310 " clip-rule="nonzero"/></clipPath><clipPath id="4ee687f0e4"><path d="M 94.296875 162.644531 L 798.53125 380.792969 L 715.976562 647.300781 L 11.742188 429.148438 Z M 94.296875 162.644531 " clip-rule="nonzero"/></clipPath><clipPath id="2ae095622b"><path d="M 11.703125 429.273438 L 715.9375 647.421875 L 798.492188 380.914062 L 94.257812 162.765625 Z M 11.703125 429.273438 " clip-rule="nonzero"/></clipPath></defs><g clip-path="url(#fd1e6e1dbd)"><g clip-path="url(#4e4b92fe47)"><g clip-path="url(#c4d84c298a)"><path fill="#000000" d="M 79.566406 213.355469 C 100.433594 236.585938 123.058594 257.953125 147.4375 277.457031 C 171.820312 296.964844 197.628906 314.347656 224.871094 329.609375 C 369.46875 410.355469 511.128906 405.195312 572.917969 399.046875 C 579.292969 378.957031 585.671875 358.882812 592.054688 338.820312 L 773.660156 457.296875 L 581.460938 576.046875 L 572.292969 513.917969 C 541.511719 514.585938 510.882812 512.761719 480.398438 508.449219 C 449.914062 504.132812 419.980469 497.382812 390.597656 488.199219 C 366.089844 480.605469 311.507812 463.238281 253.617188 423.933594 C 151.484375 354.554688 101.378906 261.921875 79.566406 213.355469 Z M 79.566406 213.355469 " fill-opacity="1" fill-rule="nonzero"/></g></g></g><g clip-path="url(#2a08015f9c)"><g clip-path="url(#4ee687f0e4)"><g clip-path="url(#2ae095622b)"><path fill="#000000" d="M 572.320312 310.664062 L 571.546875 456.550781 L 570.75 602.449219 L 672.152344 530.039062 L 773.554688 457.632812 L 672.949219 384.140625 Z M 572.320312 310.664062 " fill-opacity="1" fill-rule="nonzero"/></g></g></g></svg>