<svg xmlns="http://www.w3.org/2000/svg" xmlns:xlink="http://www.w3.org/1999/xlink" width="500" zoomAndPan="magnify" viewBox="0 0 375 374.999991" height="500" preserveAspectRatio="xMidYMid meet" version="1.0"><defs><clipPath id="d0a5b88811"><path d="M 112.5 112.5 L 262.5 112.5 L 262.5 262.5 L 112.5 262.5 Z M 112.5 112.5 " clip-rule="nonzero"/></clipPath></defs><g clip-path="url(#d0a5b88811)"><path fill="#dedede" d="M 256.597656 158.300781 C 252.820312 149.371094 247.417969 141.351562 240.53125 134.46875 C 233.648438 127.582031 225.632812 122.175781 216.699219 118.398438 C 207.441406 114.488281 197.617188 112.5 187.5 112.5 C 177.382812 112.5 167.558594 114.488281 158.300781 118.398438 C 149.371094 122.175781 141.351562 127.582031 134.46875 134.46875 C 127.582031 141.351562 122.179688 149.367188 118.402344 158.300781 C 114.488281 167.558594 112.5 177.382812 112.5 187.5 C 112.5 197.617188 114.488281 207.441406 118.398438 216.699219 C 122.175781 225.628906 127.582031 233.648438 134.464844 240.53125 C 141.351562 247.417969 149.367188 252.824219 158.300781 256.601562 C 167.558594 260.511719 177.382812 262.5 187.5 262.5 C 197.617188 262.5 207.441406 260.511719 216.699219 256.601562 C 225.628906 252.824219 233.648438 247.417969 240.53125 240.53125 C 247.417969 233.648438 252.820312 225.632812 256.597656 216.699219 C 260.511719 207.441406 262.5 197.617188 262.5 187.5 C 262.5 177.382812 260.511719 167.558594 256.597656 158.300781 Z M 165.945312 164.683594 C 167.660156 156.445312 174.128906 149.976562 182.371094 148.257812 C 197.859375 145.03125 211.289062 158.460938 208.0625 173.949219 C 206.347656 182.191406 199.878906 188.664062 191.636719 190.375 C 176.144531 193.601562 162.714844 180.175781 165.945312 164.683594 Z M 189.246094 249.933594 C 188.933594 249.945312 188.621094 249.953125 188.308594 249.953125 L 188.238281 249.953125 C 187.992188 249.960938 187.746094 249.960938 187.5 249.960938 L 187.304688 249.960938 C 170.3125 249.90625 154.914062 243.066406 143.683594 232.011719 C 147.707031 211.761719 165.574219 196.5 187.003906 196.5 C 208.71875 196.5 226.777344 212.175781 230.472656 232.828125 C 219.667969 243.074219 205.207031 249.496094 189.246094 249.933594 Z M 189.246094 249.933594 " fill-opacity="1" fill-rule="nonzero"/></g></svg>