<svg xmlns="http://www.w3.org/2000/svg" xmlns:xlink="http://www.w3.org/1999/xlink" width="1120" zoomAndPan="magnify" viewBox="0 0 840 839.999992" height="1120" preserveAspectRatio="xMidYMid meet" version="1.0"><defs><clipPath id="b9633d6ac4"><path d="M 341 258.652344 L 499 258.652344 L 499 427 L 341 427 Z M 341 258.652344 " clip-rule="nonzero"/></clipPath><clipPath id="75373c1075"><path d="M 273 426 L 566.972656 426 L 566.972656 581.152344 L 273 581.152344 Z M 273 426 " clip-rule="nonzero"/></clipPath></defs><g clip-path="url(#b9633d6ac4)"><path fill="#ffffff" d="M 419.996094 426.035156 C 463.191406 426.035156 498.328125 380.1875 498.328125 336.996094 C 498.328125 293.800781 463.191406 258.652344 419.996094 258.652344 C 376.796875 258.652344 341.65625 293.800781 341.65625 336.996094 C 341.664062 380.183594 376.800781 426.035156 419.996094 426.035156 Z M 419.996094 426.035156 " fill-opacity="1" fill-rule="nonzero"/></g><g clip-path="url(#75373c1075)"><path fill="#ffffff" d="M 478.804688 426.835938 C 463.609375 438.414062 444.652344 445.300781 424.117188 445.300781 L 415.871094 445.300781 C 395.335938 445.300781 376.375 438.410156 361.183594 426.835938 C 311.570312 434.859375 273.683594 477.863281 273.683594 529.734375 C 273.683594 558.230469 339.1875 581.339844 419.996094 581.339844 C 500.800781 581.339844 566.308594 558.230469 566.308594 529.734375 C 566.308594 477.863281 528.417969 434.859375 478.804688 426.835938 Z M 478.804688 426.835938 " fill-opacity="1" fill-rule="nonzero"/></g></svg>