<svg xmlns="http://www.w3.org/2000/svg" xmlns:xlink="http://www.w3.org/1999/xlink" width="1080" zoomAndPan="magnify" viewBox="0 0 810 809.999993" height="1080" preserveAspectRatio="xMidYMid meet" version="1.0"><defs><clipPath id="889f389272"><path d="M 0.117188 43.03125 L 809.894531 43.03125 L 809.894531 408 L 0.117188 408 Z M 0.117188 43.03125 " clip-rule="nonzero"/></clipPath><clipPath id="7d1f7be24b"><path d="M 0.117188 334.835938 L 809.894531 334.835938 L 809.894531 589.738281 L 0.117188 589.738281 Z M 0.117188 334.835938 " clip-rule="nonzero"/></clipPath><clipPath id="3a13302a7a"><path d="M 0.117188 512.066406 L 809.894531 512.066406 L 809.894531 766.78125 L 0.117188 766.78125 Z M 0.117188 512.066406 " clip-rule="nonzero"/></clipPath></defs><g clip-path="url(#889f389272)"><path fill="#000000" d="M 405.011719 69.523438 L 757.464844 190.703125 L 405.007812 312.136719 L 52.914062 190.828125 Z M 784.148438 250.675781 L 417.882812 376.867188 L 417.882812 334.929688 L 784.148438 208.742188 Z M 25.867188 208.742188 L 392.132812 334.929688 L 392.132812 376.878906 L 25.867188 250.945312 Z M 0.117188 190.925781 L 0.117188 260.132812 C 0.117188 265.628906 3.609375 270.519531 8.808594 272.304688 L 400.824219 407.09375 C 400.863281 407.105469 400.910156 407.117188 400.953125 407.132812 C 401.152344 407.199219 401.351562 407.253906 401.550781 407.308594 C 401.683594 407.347656 401.820312 407.386719 401.953125 407.421875 C 402.15625 407.472656 402.363281 407.507812 402.570312 407.550781 C 402.703125 407.574219 402.832031 407.605469 402.964844 407.625 C 403.1875 407.660156 403.414062 407.683594 403.636719 407.707031 C 403.753906 407.722656 403.867188 407.742188 403.984375 407.75 C 404.3125 407.777344 404.644531 407.789062 404.976562 407.789062 C 404.988281 407.789062 404.996094 407.792969 405.007812 407.792969 C 405.019531 407.792969 405.027344 407.789062 405.039062 407.789062 C 405.371094 407.789062 405.703125 407.777344 406.03125 407.75 C 406.148438 407.742188 406.265625 407.722656 406.382812 407.707031 C 406.605469 407.683594 406.832031 407.660156 407.050781 407.625 C 407.1875 407.605469 407.316406 407.574219 407.453125 407.546875 C 407.65625 407.507812 407.863281 407.46875 408.066406 407.421875 C 408.203125 407.386719 408.335938 407.34375 408.472656 407.308594 C 408.671875 407.25 408.871094 407.195312 409.066406 407.128906 C 409.113281 407.117188 409.15625 407.105469 409.199219 407.089844 L 801.214844 272.03125 C 806.410156 270.242188 809.894531 265.351562 809.894531 259.855469 L 809.894531 190.691406 C 809.894531 190.691406 809.894531 190.683594 809.894531 190.679688 C 809.894531 189.917969 809.824219 189.152344 809.691406 188.410156 C 809.6875 188.382812 809.679688 188.359375 809.675781 188.335938 C 809.636719 188.125 809.59375 187.917969 809.546875 187.714844 C 809.535156 187.664062 809.519531 187.613281 809.507812 187.5625 C 809.460938 187.378906 809.410156 187.191406 809.351562 187.007812 C 809.339844 186.957031 809.328125 186.910156 809.3125 186.859375 C 809.167969 186.40625 809.007812 185.964844 808.816406 185.53125 C 808.785156 185.46875 808.757812 185.402344 808.726562 185.339844 C 808.65625 185.1875 808.589844 185.042969 808.515625 184.894531 C 808.476562 184.824219 808.441406 184.75 808.402344 184.675781 C 808.328125 184.535156 808.25 184.398438 808.171875 184.257812 C 808.132812 184.191406 808.097656 184.128906 808.058594 184.0625 C 807.949219 183.886719 807.84375 183.714844 807.730469 183.546875 C 807.714844 183.523438 807.703125 183.5 807.683594 183.480469 C 807.546875 183.273438 807.40625 183.078125 807.253906 182.878906 C 807.246094 182.867188 807.238281 182.859375 807.230469 182.84375 C 807.085938 182.664062 806.945312 182.488281 806.796875 182.3125 C 806.773438 182.289062 806.75 182.261719 806.726562 182.230469 C 806.582031 182.070312 806.433594 181.90625 806.28125 181.75 C 806.265625 181.730469 806.246094 181.714844 806.230469 181.695312 C 805.535156 180.980469 804.75 180.34375 803.882812 179.796875 C 803.859375 179.785156 803.839844 179.769531 803.8125 179.753906 C 803.628906 179.640625 803.441406 179.527344 803.246094 179.425781 C 803.214844 179.402344 803.183594 179.386719 803.148438 179.371094 C 802.953125 179.265625 802.761719 179.167969 802.566406 179.074219 C 802.539062 179.058594 802.507812 179.046875 802.484375 179.03125 C 802.265625 178.933594 802.042969 178.832031 801.8125 178.742188 C 801.761719 178.722656 801.714844 178.703125 801.667969 178.6875 C 801.519531 178.628906 801.363281 178.570312 801.207031 178.515625 L 409.195312 43.730469 C 406.476562 42.792969 403.53125 42.800781 400.8125 43.734375 L 11.304688 177.929688 C 9.246094 178.203125 7.257812 178.96875 5.519531 180.210938 C 2.128906 182.625 0.117188 186.53125 0.117188 190.691406 L 0.117188 190.695312 C 0.117188 190.773438 0.121094 190.847656 0.117188 190.925781 " fill-opacity="1" fill-rule="nonzero"/></g><g clip-path="url(#7d1f7be24b)"><path fill="#000000" d="M 784.148438 432.261719 L 417.882812 558.453125 L 417.882812 516.519531 L 784.148438 390.328125 Z M 25.867188 390.328125 L 392.132812 516.519531 L 392.132812 558.464844 L 25.867188 432.53125 Z M 809.675781 369.917969 C 809.636719 369.710938 809.59375 369.503906 809.546875 369.300781 C 809.535156 369.25 809.519531 369.199219 809.507812 369.148438 C 809.460938 368.960938 809.410156 368.777344 809.351562 368.59375 C 809.339844 368.542969 809.328125 368.492188 809.3125 368.441406 C 809.167969 367.992188 809.007812 367.550781 808.816406 367.117188 C 808.785156 367.050781 808.757812 366.988281 808.726562 366.921875 C 808.65625 366.773438 808.589844 366.628906 808.515625 366.484375 C 808.476562 366.410156 808.441406 366.335938 808.402344 366.261719 C 808.328125 366.121094 808.25 365.984375 808.171875 365.84375 C 808.132812 365.78125 808.097656 365.714844 808.058594 365.648438 C 807.949219 365.476562 807.84375 365.300781 807.730469 365.132812 C 807.714844 365.109375 807.703125 365.085938 807.683594 365.0625 C 807.546875 364.859375 807.40625 364.660156 807.253906 364.464844 C 807.246094 364.453125 807.238281 364.441406 807.230469 364.429688 C 807.085938 364.25 806.945312 364.070312 806.796875 363.898438 C 806.773438 363.871094 806.75 363.847656 806.726562 363.816406 C 806.582031 363.652344 806.433594 363.492188 806.28125 363.332031 C 806.265625 363.316406 806.246094 363.296875 806.230469 363.277344 C 805.535156 362.566406 804.75 361.925781 803.882812 361.382812 C 803.859375 361.367188 803.839844 361.355469 803.816406 361.339844 C 803.628906 361.222656 803.4375 361.113281 803.242188 361.007812 C 803.214844 360.988281 803.183594 360.972656 803.152344 360.957031 C 802.953125 360.847656 802.753906 360.746094 802.554688 360.652344 C 802.53125 360.640625 802.507812 360.628906 802.488281 360.617188 C 802.265625 360.515625 802.035156 360.417969 801.808594 360.324219 C 801.773438 360.308594 801.734375 360.296875 801.695312 360.28125 C 801.535156 360.21875 801.371094 360.15625 801.207031 360.101562 L 729.980469 335.609375 C 723.257812 333.296875 715.9375 336.875 713.625 343.601562 C 711.3125 350.324219 714.890625 357.648438 721.609375 359.960938 L 757.464844 372.289062 L 405.007812 493.71875 L 52.914062 372.414062 L 88.410156 360.183594 C 95.132812 357.867188 98.707031 350.542969 96.390625 343.816406 C 94.070312 337.09375 86.746094 333.523438 80.023438 335.835938 L 11.304688 359.515625 C 9.246094 359.789062 7.257812 360.554688 5.519531 361.792969 C 2.128906 364.210938 0.117188 368.113281 0.117188 372.277344 C 0.117188 372.355469 0.121094 372.429688 0.117188 372.507812 L 0.117188 441.71875 C 0.117188 447.214844 3.609375 452.105469 8.808594 453.890625 L 400.824219 588.675781 C 400.867188 588.691406 400.914062 588.699219 400.957031 588.71875 C 401.152344 588.78125 401.34375 588.835938 401.539062 588.890625 C 401.675781 588.929688 401.816406 588.972656 401.957031 589.003906 C 402.15625 589.050781 402.359375 589.089844 402.5625 589.132812 C 402.699219 589.160156 402.832031 589.1875 402.964844 589.210938 C 403.1875 589.246094 403.410156 589.273438 403.632812 589.292969 C 403.75 589.304688 403.867188 589.328125 403.984375 589.335938 C 404.3125 589.363281 404.644531 589.375 404.976562 589.375 C 404.988281 589.375 404.996094 589.375 405.007812 589.375 C 405.019531 589.375 405.027344 589.375 405.039062 589.375 C 405.371094 589.375 405.703125 589.363281 406.03125 589.335938 C 406.148438 589.324219 406.265625 589.304688 406.382812 589.292969 C 406.605469 589.273438 406.832031 589.246094 407.050781 589.210938 C 407.1875 589.1875 407.316406 589.160156 407.453125 589.132812 C 407.65625 589.089844 407.863281 589.050781 408.066406 589.003906 C 408.203125 588.972656 408.335938 588.929688 408.472656 588.894531 C 408.671875 588.835938 408.871094 588.777344 409.066406 588.714844 C 409.113281 588.699219 409.15625 588.6875 409.199219 588.675781 L 801.214844 453.613281 C 806.410156 451.824219 809.894531 446.933594 809.894531 441.441406 L 809.894531 372.277344 C 809.894531 372.273438 809.894531 372.269531 809.894531 372.265625 C 809.894531 371.5 809.824219 370.742188 809.691406 369.996094 C 809.6875 369.96875 809.679688 369.941406 809.675781 369.917969 " fill-opacity="1" fill-rule="nonzero"/></g><g clip-path="url(#3a13302a7a)"><path fill="#000000" d="M 784.148438 609.847656 L 417.882812 736.035156 L 417.882812 694.101562 L 784.148438 567.910156 Z M 25.867188 567.910156 L 392.132812 694.101562 L 392.132812 736.050781 L 25.867188 610.113281 Z M 809.691406 547.578125 C 809.6875 547.550781 809.679688 547.527344 809.675781 547.5 C 809.636719 547.292969 809.59375 547.089844 809.546875 546.882812 C 809.535156 546.835938 809.519531 546.78125 809.507812 546.734375 C 809.460938 546.546875 809.410156 546.359375 809.351562 546.175781 C 809.339844 546.128906 809.328125 546.074219 809.3125 546.027344 C 809.167969 545.578125 809.007812 545.136719 808.816406 544.703125 C 808.785156 544.636719 808.757812 544.574219 808.726562 544.511719 C 808.65625 544.359375 808.589844 544.214844 808.515625 544.066406 C 808.476562 543.992188 808.441406 543.921875 808.402344 543.847656 C 808.328125 543.707031 808.25 543.566406 808.171875 543.425781 C 808.132812 543.363281 808.097656 543.300781 808.058594 543.234375 C 807.949219 543.058594 807.84375 542.882812 807.726562 542.714844 C 807.714844 542.695312 807.703125 542.671875 807.683594 542.652344 C 807.546875 542.445312 807.40625 542.242188 807.253906 542.050781 C 807.246094 542.039062 807.238281 542.027344 807.230469 542.015625 C 807.09375 541.835938 806.945312 541.65625 806.796875 541.480469 C 806.773438 541.457031 806.75 541.433594 806.726562 541.40625 C 806.582031 541.238281 806.433594 541.078125 806.28125 540.917969 C 806.265625 540.902344 806.25 540.882812 806.234375 540.867188 C 805.535156 540.148438 804.746094 539.507812 803.875 538.964844 C 803.855469 538.953125 803.839844 538.941406 803.820312 538.929688 C 803.628906 538.8125 803.429688 538.695312 803.234375 538.582031 C 803.207031 538.570312 803.183594 538.558594 803.15625 538.542969 C 802.953125 538.433594 802.746094 538.324219 802.53125 538.226562 C 802.515625 538.21875 802.503906 538.214844 802.492188 538.207031 C 802.265625 538.101562 802.035156 538 801.804688 537.90625 C 801.785156 537.898438 801.765625 537.890625 801.75 537.886719 C 801.570312 537.816406 801.390625 537.746094 801.207031 537.6875 L 729.980469 513.195312 C 723.257812 510.886719 715.9375 514.460938 713.625 521.1875 C 711.3125 527.90625 714.890625 535.230469 721.609375 537.546875 L 757.464844 549.875 L 405.007812 671.304688 L 52.914062 549.996094 L 88.410156 537.769531 C 95.132812 535.449219 98.707031 528.125 96.390625 521.402344 C 94.070312 514.679688 86.746094 511.109375 80.023438 513.421875 L 11.300781 537.101562 C 9.246094 537.371094 7.257812 538.140625 5.519531 539.378906 C 2.128906 541.792969 0.117188 545.699219 0.117188 549.859375 L 0.117188 549.863281 C 0.117188 549.941406 0.121094 550.019531 0.117188 550.09375 L 0.117188 619.300781 C 0.117188 624.796875 3.609375 629.691406 8.808594 631.476562 L 400.824219 766.261719 C 400.867188 766.277344 400.914062 766.285156 400.957031 766.304688 C 401.152344 766.367188 401.34375 766.425781 401.539062 766.476562 C 401.675781 766.515625 401.816406 766.554688 401.957031 766.589844 C 402.15625 766.636719 402.359375 766.675781 402.5625 766.71875 C 402.699219 766.746094 402.832031 766.777344 402.964844 766.796875 C 403.1875 766.832031 403.410156 766.855469 403.632812 766.878906 C 403.75 766.890625 403.867188 766.914062 403.984375 766.921875 C 404.3125 766.945312 404.644531 766.960938 404.976562 766.960938 C 404.988281 766.960938 404.996094 766.960938 405.007812 766.960938 C 405.019531 766.960938 405.027344 766.960938 405.039062 766.960938 C 405.371094 766.960938 405.703125 766.945312 406.03125 766.921875 C 406.148438 766.910156 406.265625 766.890625 406.386719 766.878906 C 406.609375 766.851562 406.832031 766.832031 407.050781 766.796875 C 407.1875 766.777344 407.320312 766.742188 407.460938 766.714844 C 407.660156 766.675781 407.863281 766.636719 408.0625 766.589844 C 408.203125 766.554688 408.34375 766.515625 408.484375 766.476562 C 408.675781 766.417969 408.871094 766.363281 409.0625 766.304688 C 409.105469 766.285156 409.15625 766.277344 409.199219 766.261719 L 801.214844 631.195312 C 806.410156 629.410156 809.894531 624.519531 809.894531 619.027344 L 809.894531 549.859375 C 809.894531 549.855469 809.894531 549.855469 809.894531 549.851562 C 809.894531 549.085938 809.824219 548.324219 809.691406 547.578125 " fill-opacity="1" fill-rule="nonzero"/></g></svg>