<svg xmlns="http://www.w3.org/2000/svg" xmlns:xlink="http://www.w3.org/1999/xlink" width="1080" zoomAndPan="magnify" viewBox="0 0 810 809.999993" height="1080" preserveAspectRatio="xMidYMid meet" version="1.0"><path fill="#139a43" d="M 9.792969 728.773438 C 9.953125 728.789062 10.132812 728.789062 10.289062 728.789062 C 10.835938 728.789062 11.382812 728.742188 11.921875 728.648438 C 12.460938 728.554688 12.988281 728.417969 13.503906 728.234375 C 14.019531 728.046875 14.515625 727.820312 14.992188 727.550781 C 15.46875 727.285156 15.921875 726.976562 16.34375 726.628906 C 16.769531 726.28125 17.160156 725.902344 17.519531 725.488281 C 17.878906 725.074219 18.199219 724.632812 18.480469 724.164062 C 18.765625 723.695312 19.003906 723.207031 19.203125 722.695312 C 19.402344 722.1875 19.558594 721.664062 19.667969 721.125 C 35.855469 641.160156 95.308594 566.007812 182.734375 514.953125 C 263.792969 467.613281 361.128906 445.972656 444.894531 456.359375 L 444.894531 589.101562 C 444.894531 589.976562 445.015625 590.835938 445.25 591.679688 C 445.488281 592.523438 445.835938 593.320312 446.292969 594.070312 C 446.75 594.816406 447.296875 595.492188 447.9375 596.089844 C 448.578125 596.6875 449.289062 597.1875 450.066406 597.589844 C 450.84375 597.992188 451.664062 598.285156 452.523438 598.460938 C 453.378906 598.640625 454.246094 598.699219 455.121094 598.636719 C 455.996094 598.578125 456.847656 598.402344 457.671875 598.109375 C 458.5 597.816406 459.269531 597.414062 459.984375 596.910156 L 811.066406 347.984375 C 811.378906 347.761719 811.675781 347.523438 811.957031 347.269531 C 812.238281 347.015625 812.503906 346.742188 812.753906 346.457031 C 813.003906 346.167969 813.234375 345.867188 813.449219 345.550781 C 813.664062 345.238281 813.855469 344.910156 814.03125 344.574219 C 814.207031 344.234375 814.359375 343.886719 814.496094 343.53125 C 814.628906 343.171875 814.738281 342.808594 814.828125 342.441406 C 814.917969 342.070312 814.988281 341.695312 815.03125 341.320312 C 815.078125 340.941406 815.101562 340.5625 815.101562 340.179688 C 815.101562 339.800781 815.078125 339.421875 815.03125 339.042969 C 814.988281 338.664062 814.917969 338.289062 814.828125 337.921875 C 814.738281 337.550781 814.628906 337.1875 814.496094 336.832031 C 814.359375 336.476562 814.207031 336.128906 814.03125 335.789062 C 813.855469 335.449219 813.664062 335.125 813.449219 334.808594 C 813.234375 334.496094 813.003906 334.195312 812.753906 333.90625 C 812.503906 333.617188 812.238281 333.347656 811.957031 333.09375 C 811.675781 332.835938 811.378906 332.597656 811.066406 332.378906 L 459.984375 83.449219 C 459.269531 82.941406 458.5 82.539062 457.671875 82.246094 C 456.847656 81.949219 455.996094 81.773438 455.121094 81.710938 C 454.246094 81.652344 453.378906 81.710938 452.519531 81.886719 C 451.660156 82.066406 450.839844 82.355469 450.0625 82.757812 C 449.28125 83.160156 448.574219 83.664062 447.929688 84.261719 C 447.289062 84.859375 446.742188 85.535156 446.285156 86.285156 C 445.832031 87.03125 445.484375 87.832031 445.246094 88.675781 C 445.011719 89.519531 444.894531 90.382812 444.894531 91.257812 L 444.894531 203.394531 C 329.015625 219.597656 213.550781 283.15625 126.929688 378.710938 C 82.699219 427.5 49.144531 481.117188 27.171875 538.035156 C 3.738281 598.726562 -5.15625 660.011719 0.753906 720.171875 C 0.8125 720.738281 0.917969 721.292969 1.074219 721.839844 C 1.230469 722.382812 1.433594 722.910156 1.679688 723.421875 C 1.929688 723.933594 2.222656 724.414062 2.558594 724.875 C 2.894531 725.332031 3.269531 725.757812 3.679688 726.148438 C 4.089844 726.539062 4.535156 726.890625 5.007812 727.203125 C 5.480469 727.515625 5.980469 727.785156 6.5 728.007812 C 7.023438 728.234375 7.558594 728.410156 8.113281 728.539062 C 8.664062 728.667969 9.226562 728.746094 9.792969 728.773438 Z M 9.792969 728.773438 " fill-opacity="1" fill-rule="evenodd"/></svg>