<svg xmlns="http://www.w3.org/2000/svg" xmlns:xlink="http://www.w3.org/1999/xlink" width="1080" zoomAndPan="magnify" viewBox="0 0 810 809.999993" height="1080" preserveAspectRatio="xMidYMid meet" version="1.0"><defs><clipPath id="4d80db8254"><path d="M 8 0 L 805.5 0 L 805.5 802 L 8 802 Z M 8 0 " clip-rule="nonzero"/></clipPath></defs><g clip-path="url(#4d80db8254)"><path fill="#139a43" d="M 501.851562 786.714844 C 435.152344 769.609375 391.207031 740.191406 344.507812 708.378906 C 244.039062 639.867188 176.171875 562.03125 134.039062 505.042969 C 97.605469 455.710938 47.136719 386.03125 20.789062 282.992188 C 0.0273438 201.847656 10.261719 162.667969 17.191406 143.398438 C 34.472656 95.355469 79.914062 35.996094 130.351562 38.832031 C 154.15625 40.179688 176.054688 62.695312 218.921875 107.722656 C 274.449219 166.058594 302.226562 195.238281 298.863281 225.824219 C 298.863281 225.824219 296.789062 244.714844 223.835938 320.535156 C 223.835938 320.535156 263.777344 396.882812 311.175781 450.917969 C 387.054688 537.46875 496.910156 583.757812 496.910156 583.757812 C 496.910156 583.757812 540.507812 517.730469 586.5 512.585938 C 611.941406 509.75 632.175781 527 671.589844 561.59375 C 734.839844 617.121094 775.804688 653.054688 769.984375 696.914062 C 763.523438 745.804688 702.996094 773.585938 683.289062 782.621094 C 613.898438 814.460938 545.070312 797.796875 501.851562 786.714844 Z M 456.351562 37.753906 C 464.832031 37.695312 473.3125 37.984375 481.761719 38.628906 C 484.890625 38.863281 488.050781 39.15625 491.179688 39.476562 C 492.582031 39.625 493.984375 39.769531 495.390625 39.945312 C 497.261719 40.148438 504.335938 41.730469 497.523438 40.179688 C 504.921875 41.84375 512.613281 42.519531 520.066406 44.039062 C 538.285156 47.78125 556.238281 52.984375 573.605469 59.652344 C 576.0625 60.589844 578.488281 61.582031 580.945312 62.578125 C 585.214844 64.273438 577.175781 60.910156 581.445312 62.78125 C 582.671875 63.335938 583.929688 63.863281 585.15625 64.417969 C 590.214844 66.671875 595.246094 69.066406 600.1875 71.554688 C 610.1875 76.613281 619.921875 82.226562 629.339844 88.308594 C 634.515625 91.640625 639.574219 95.152344 644.542969 98.804688 C 645.390625 99.417969 646.238281 100.0625 647.058594 100.675781 C 647.496094 101 651.648438 104.214844 648.316406 101.613281 C 651.269531 103.921875 654.191406 106.292969 657.089844 108.71875 C 666.53125 116.640625 675.539062 125.121094 684.019531 134.097656 C 688.199219 138.515625 692.265625 143.074219 696.183594 147.726562 C 697.789062 149.625 699.339844 151.527344 700.890625 153.457031 C 701.796875 154.597656 702.730469 155.765625 703.636719 156.90625 C 700.714844 153.191406 704.632812 158.25 705.128906 158.921875 C 711.5625 167.578125 717.527344 176.554688 723.054688 185.796875 C 728.464844 194.859375 733.40625 204.21875 737.910156 213.777344 C 738.816406 215.679688 739.691406 217.609375 740.539062 219.539062 C 741.066406 220.679688 741.5625 221.820312 742.058594 222.988281 C 742.234375 223.371094 742.382812 223.75 742.558594 224.128906 C 743.347656 226 743.199219 225.648438 742.117188 223.105469 C 743.464844 224.714844 744.105469 227.960938 744.867188 229.917969 C 745.746094 232.140625 746.59375 234.394531 747.410156 236.644531 C 753.289062 252.667969 757.96875 269.128906 761.445312 285.828125 C 763.113281 293.867188 764.167969 301.96875 765.628906 310.007812 C 765.65625 310.097656 764.957031 304.6875 765.277344 307.523438 C 765.394531 308.574219 765.539062 309.65625 765.6875 310.710938 C 765.890625 312.492188 766.097656 314.277344 766.300781 316.0625 C 766.621094 319.101562 766.886719 322.144531 767.148438 325.183594 C 767.761719 333.253906 768.113281 341.382812 768.054688 349.484375 C 767.996094 359.21875 776.679688 368.546875 786.679688 368.109375 C 796.828125 367.640625 805.21875 359.921875 805.308594 349.484375 C 805.6875 290.914062 790.042969 231.324219 762.5 179.859375 C 717.207031 95.210938 635.742188 33.832031 542.816406 11.027344 C 514.660156 4.125 485.390625 0.296875 456.351562 0.527344 C 446.617188 0.617188 437.289062 9.039062 437.726562 19.15625 C 438.164062 29.15625 445.914062 37.839844 456.351562 37.753906 Z M 452.667969 132.460938 C 459.042969 132.316406 465.445312 132.460938 471.792969 132.871094 C 476.675781 133.191406 481.558594 133.6875 486.441406 134.246094 C 490.476562 134.710938 481.5 133.515625 486.675781 134.273438 C 487.992188 134.449219 489.277344 134.65625 490.59375 134.859375 C 493.691406 135.355469 496.761719 135.910156 499.832031 136.527344 C 513.636719 139.273438 527.171875 143.132812 540.300781 148.164062 C 541.96875 148.808594 543.605469 149.480469 545.242188 150.121094 C 548.519531 151.4375 544.777344 150.09375 544.542969 149.800781 C 544.835938 150.152344 546.5 150.648438 547.058594 150.882812 C 550.886719 152.578125 554.6875 154.390625 558.460938 156.292969 C 566.382812 160.328125 574.074219 164.800781 581.472656 169.714844 C 584.953125 172.023438 588.34375 174.390625 591.675781 176.878906 C 592.523438 177.519531 593.375 178.132812 594.222656 178.808594 C 591.472656 176.671875 593.722656 178.425781 594.25 178.867188 C 596.355469 180.589844 598.492188 182.316406 600.539062 184.070312 C 607.671875 190.210938 614.457031 196.789062 620.800781 203.75 C 623.460938 206.671875 626.0625 209.65625 628.550781 212.726562 C 629.777344 214.21875 631.035156 215.707031 632.175781 217.257812 C 629.808594 214.070312 631.386719 216.234375 631.882812 216.90625 C 632.730469 218.046875 633.578125 219.1875 634.398438 220.328125 C 639.074219 226.820312 643.402344 233.546875 647.378906 240.503906 C 651.121094 247.054688 654.542969 253.75 657.644531 260.621094 C 658.199219 261.878906 659.542969 263.808594 659.632812 265.152344 C 659.457031 262.582031 658.460938 262.316406 659.164062 264.101562 C 659.542969 265.035156 659.925781 265.972656 660.304688 266.910156 C 661.621094 270.210938 662.847656 273.546875 664.019531 276.910156 C 668.023438 288.488281 671.210938 300.359375 673.550781 312.375 C 674.136719 315.417969 674.691406 318.457031 675.160156 321.5 C 675.390625 322.933594 675.566406 324.394531 675.800781 325.828125 C 676.242188 328.691406 675.480469 323.3125 675.480469 323.371094 C 675.539062 324.191406 675.683594 325.007812 675.800781 325.828125 C 676.386719 330.535156 676.824219 335.242188 677.117188 339.949219 C 677.496094 345.738281 677.644531 351.558594 677.527344 357.378906 C 677.320312 367.113281 686.242188 376.441406 696.152344 376.003906 C 706.417969 375.535156 714.574219 367.816406 714.777344 357.378906 C 715.625 313.898438 704.371094 269.453125 684.542969 230.941406 C 651.386719 166.527344 589.6875 119.59375 519.453125 102.722656 C 497.699219 97.488281 475.007812 94.683594 452.582031 95.179688 C 442.84375 95.382812 433.488281 103.601562 433.957031 113.804688 C 434.480469 123.746094 442.230469 132.695312 452.667969 132.460938 Z M 453.898438 223.488281 C 458.339844 223.574219 462.785156 223.867188 467.203125 224.335938 C 468.050781 224.421875 468.898438 224.539062 469.746094 224.625 C 472.640625 224.917969 467.492188 224.335938 467.492188 224.304688 C 469.074219 224.597656 470.679688 224.773438 472.289062 225.066406 C 476.207031 225.738281 480.097656 226.554688 483.957031 227.523438 C 487.902344 228.488281 491.792969 229.625 495.652344 230.882812 C 497.726562 231.558594 499.773438 232.289062 501.820312 233.046875 C 503.078125 233.515625 504.335938 234.042969 505.59375 234.511719 C 509.191406 235.914062 502.378906 232.960938 506.238281 234.800781 C 515.855469 239.363281 525.097656 244.421875 533.722656 250.710938 C 533.605469 250.621094 537.816406 253.867188 535.769531 252.230469 C 533.695312 250.5625 537.964844 254.042969 537.789062 253.925781 C 539.863281 255.652344 541.882812 257.433594 543.839844 259.277344 C 547.875 263.019531 551.707031 266.996094 555.273438 271.175781 C 555.886719 271.910156 560.769531 277.84375 557.789062 274.070312 C 559.222656 275.886719 560.566406 277.785156 561.882812 279.6875 C 564.660156 283.722656 567.261719 287.875 569.660156 292.144531 C 571.707031 295.796875 573.605469 299.570312 575.363281 303.371094 C 575.710938 304.101562 576.035156 304.863281 576.355469 305.59375 C 578.140625 309.480469 574.804688 301.617188 576.328125 305.535156 C 577.175781 307.699219 578.023438 309.832031 578.78125 311.996094 C 581.210938 318.808594 583.226562 325.796875 584.746094 332.875 C 585.421875 336.003906 586.035156 339.132812 586.53125 342.289062 C 586.648438 343.078125 586.765625 343.839844 586.882812 344.628906 C 587.4375 347.875 586.269531 339.484375 586.617188 342.640625 C 586.765625 343.984375 586.941406 345.332031 587.085938 346.675781 C 587.4375 350.214844 587.671875 353.78125 587.757812 357.347656 C 587.992188 367.085938 596.152344 376.441406 606.386719 375.972656 C 616.269531 375.535156 625.273438 367.789062 625.011719 357.347656 C 624.308594 329.804688 616.851562 302.257812 604.222656 277.84375 C 583.023438 236.90625 544.804688 206.4375 500.738281 193.425781 C 485.621094 188.953125 469.628906 186.527344 453.867188 186.175781 C 444.132812 185.972656 434.804688 194.890625 435.242188 204.800781 C 435.738281 215.152344 443.457031 223.28125 453.898438 223.488281 Z M 453.898438 223.488281 " fill-opacity="1" fill-rule="nonzero"/></g></svg>