<svg xmlns="http://www.w3.org/2000/svg" xmlns:xlink="http://www.w3.org/1999/xlink" width="1080" zoomAndPan="magnify" viewBox="0 0 810 809.999993" height="1080" preserveAspectRatio="xMidYMid meet" version="1.0"><path fill="#139a43" d="M 791.210938 351.242188 L 651.539062 235.347656 L 651.539062 86.175781 L 554.246094 86.175781 L 554.246094 154.75 L 434.8125 55.699219 C 417.683594 41.589844 389.867188 41.589844 372.859375 55.699219 L 16.414062 351.242188 C -0.617188 365.351562 3.5625 376.847656 25.675781 376.847656 L 125.871094 376.847656 L 125.871094 726.976562 C 125.871094 749.164062 144.019531 767.238281 166.132812 767.238281 L 641.515625 767.238281 C 663.628906 767.238281 681.683594 749.140625 681.683594 726.976562 L 681.683594 376.847656 L 781.945312 376.847656 C 804.0625 376.847656 808.21875 365.328125 791.210938 351.242188 Z M 508.113281 554.90625 C 445.40625 635.21875 403.8125 647.402344 403.8125 647.402344 C 403.8125 647.402344 362.21875 635.191406 299.511719 554.882812 C 221.742188 455.234375 255.660156 355.660156 330.175781 359.839844 C 391.269531 363.285156 403.8125 434.546875 403.8125 434.546875 C 403.8125 434.546875 416.332031 363.285156 477.449219 359.839844 C 551.941406 355.683594 585.882812 455.234375 508.113281 554.90625 Z M 508.113281 554.90625 " fill-opacity="1" fill-rule="nonzero"/></svg>