<svg xmlns="http://www.w3.org/2000/svg" xmlns:xlink="http://www.w3.org/1999/xlink" width="1080" zoomAndPan="magnify" viewBox="0 0 810 809.999993" height="1080" preserveAspectRatio="xMidYMid meet" version="1.0"><defs><clipPath id="abb8d37e55"><path d="M 0 1.519531 L 529 1.519531 L 529 808 L 0 808 Z M 0 1.519531 " clip-rule="nonzero"/></clipPath></defs><path fill="#ffffff" d="M 793.792969 375.515625 L 636.570312 218.292969 C 635.605469 217.328125 634.597656 216.414062 633.539062 215.546875 C 632.484375 214.679688 631.390625 213.867188 630.253906 213.109375 C 629.117188 212.351562 627.949219 211.648438 626.746094 211.003906 C 625.539062 210.363281 624.308594 209.777344 623.046875 209.257812 C 621.785156 208.734375 620.5 208.273438 619.195312 207.878906 C 617.886719 207.480469 616.566406 207.148438 615.226562 206.882812 C 613.886719 206.617188 612.539062 206.417969 611.179688 206.285156 C 609.820312 206.148438 608.457031 206.082031 607.089844 206.082031 C 605.726562 206.082031 604.363281 206.148438 603.003906 206.285156 C 601.648438 206.417969 600.296875 206.617188 598.957031 206.882812 C 597.617188 207.148438 596.296875 207.480469 594.988281 207.878906 C 593.683594 208.273438 592.398438 208.734375 591.136719 209.257812 C 589.875 209.777344 588.644531 210.363281 587.4375 211.003906 C 586.234375 211.648438 585.066406 212.351562 583.929688 213.109375 C 582.792969 213.867188 581.699219 214.679688 580.644531 215.546875 C 579.585938 216.414062 578.578125 217.328125 577.613281 218.292969 C 576.644531 219.257812 575.730469 220.269531 574.863281 221.324219 C 574 222.382812 573.1875 223.476562 572.425781 224.613281 C 571.667969 225.746094 570.96875 226.917969 570.324219 228.121094 C 569.679688 229.324219 569.097656 230.558594 568.574219 231.820312 C 568.050781 233.082031 567.59375 234.363281 567.195312 235.671875 C 566.800781 236.976562 566.46875 238.300781 566.203125 239.640625 C 565.9375 240.980469 565.734375 242.328125 565.601562 243.6875 C 565.46875 245.046875 565.402344 246.40625 565.402344 247.773438 C 565.402344 249.136719 565.46875 250.5 565.601562 251.859375 C 565.734375 253.21875 565.9375 254.566406 566.203125 255.90625 C 566.46875 257.246094 566.800781 258.570312 567.195312 259.875 C 567.59375 261.179688 568.050781 262.464844 568.574219 263.726562 C 569.097656 264.988281 569.679688 266.222656 570.324219 267.425781 C 570.96875 268.628906 571.667969 269.800781 572.425781 270.933594 C 573.1875 272.070312 574 273.164062 574.863281 274.222656 C 575.730469 275.277344 576.644531 276.285156 577.613281 277.253906 L 663.667969 363.304688 L 208.449219 363.304688 C 207.085938 363.304688 205.722656 363.371094 204.363281 363.507812 C 203.003906 363.640625 201.65625 363.839844 200.316406 364.105469 C 198.976562 364.371094 197.652344 364.703125 196.347656 365.101562 C 195.039062 365.496094 193.757812 365.957031 192.496094 366.480469 C 191.234375 367 190 367.585938 188.796875 368.226562 C 187.59375 368.871094 186.421875 369.574219 185.289062 370.332031 C 184.152344 371.089844 183.058594 371.902344 182 372.769531 C 180.945312 373.636719 179.9375 374.550781 178.96875 375.515625 C 178.003906 376.480469 177.089844 377.492188 176.222656 378.546875 C 175.355469 379.601562 174.542969 380.699219 173.785156 381.832031 C 173.027344 382.96875 172.324219 384.140625 171.683594 385.34375 C 171.039062 386.546875 170.457031 387.78125 169.933594 389.042969 C 169.410156 390.304688 168.949219 391.585938 168.554688 392.894531 C 168.160156 394.199219 167.828125 395.523438 167.5625 396.863281 C 167.292969 398.203125 167.09375 399.550781 166.960938 400.910156 C 166.828125 402.269531 166.757812 403.628906 166.757812 404.996094 C 166.757812 406.359375 166.828125 407.722656 166.960938 409.082031 C 167.09375 410.441406 167.292969 411.789062 167.5625 413.128906 C 167.828125 414.46875 168.160156 415.789062 168.554688 417.097656 C 168.949219 418.402344 169.410156 419.6875 169.933594 420.949219 C 170.457031 422.210938 171.039062 423.445312 171.683594 424.648438 C 172.324219 425.851562 173.027344 427.023438 173.785156 428.15625 C 174.542969 429.292969 175.355469 430.386719 176.222656 431.441406 C 177.089844 432.5 178.003906 433.507812 178.96875 434.472656 C 179.9375 435.441406 180.945312 436.355469 182 437.222656 C 183.058594 438.089844 184.152344 438.902344 185.289062 439.660156 C 186.421875 440.417969 187.59375 441.117188 188.796875 441.761719 C 190 442.40625 191.234375 442.988281 192.496094 443.511719 C 193.757812 444.035156 195.039062 444.492188 196.347656 444.890625 C 197.652344 445.285156 198.976562 445.617188 200.316406 445.882812 C 201.65625 446.152344 203.003906 446.351562 204.363281 446.484375 C 205.722656 446.617188 207.085938 446.683594 208.449219 446.683594 L 663.667969 446.683594 L 577.613281 532.738281 C 576.644531 533.703125 575.730469 534.714844 574.863281 535.769531 C 574 536.824219 573.1875 537.921875 572.425781 539.054688 C 571.667969 540.191406 570.96875 541.359375 570.324219 542.566406 C 569.679688 543.769531 569.097656 545.003906 568.574219 546.265625 C 568.050781 547.523438 567.59375 548.808594 567.195312 550.117188 C 566.800781 551.421875 566.46875 552.746094 566.203125 554.085938 C 565.9375 555.425781 565.734375 556.773438 565.601562 558.132812 C 565.46875 559.492188 565.402344 560.851562 565.402344 562.21875 C 565.402344 563.582031 565.46875 564.945312 565.601562 566.304688 C 565.734375 567.664062 565.9375 569.011719 566.203125 570.351562 C 566.46875 571.691406 566.800781 573.011719 567.195312 574.320312 C 567.59375 575.625 568.050781 576.910156 568.574219 578.171875 C 569.097656 579.433594 569.679688 580.667969 570.324219 581.871094 C 570.96875 583.074219 571.667969 584.246094 572.429688 585.378906 C 573.1875 586.515625 574 587.609375 574.863281 588.667969 C 575.730469 589.722656 576.648438 590.730469 577.613281 591.699219 C 578.578125 592.664062 579.589844 593.578125 580.644531 594.445312 C 581.699219 595.3125 582.796875 596.125 583.929688 596.882812 C 585.066406 597.640625 586.234375 598.339844 587.441406 598.984375 C 588.644531 599.628906 589.875 600.210938 591.136719 600.734375 C 592.398438 601.257812 593.683594 601.714844 594.992188 602.113281 C 596.296875 602.507812 597.621094 602.839844 598.957031 603.105469 C 600.296875 603.375 601.648438 603.574219 603.007812 603.707031 C 604.363281 603.839844 605.726562 603.90625 607.09375 603.90625 C 608.457031 603.90625 609.820312 603.839844 611.179688 603.707031 C 612.539062 603.574219 613.886719 603.371094 615.226562 603.105469 C 616.566406 602.839844 617.886719 602.507812 619.195312 602.113281 C 620.5 601.714844 621.785156 601.257812 623.046875 600.734375 C 624.308594 600.210938 625.539062 599.628906 626.746094 598.984375 C 627.949219 598.339844 629.117188 597.640625 630.253906 596.882812 C 631.390625 596.121094 632.484375 595.308594 633.539062 594.445312 C 634.597656 593.578125 635.605469 592.664062 636.570312 591.695312 L 793.792969 434.472656 C 794.761719 433.507812 795.675781 432.496094 796.542969 431.441406 C 797.410156 430.386719 798.222656 429.292969 798.980469 428.15625 C 799.738281 427.019531 800.4375 425.851562 801.082031 424.648438 C 801.726562 423.441406 802.308594 422.210938 802.832031 420.949219 C 803.355469 419.6875 803.8125 418.402344 804.210938 417.097656 C 804.605469 415.789062 804.9375 414.46875 805.203125 413.128906 C 805.46875 411.789062 805.671875 410.441406 805.804688 409.082031 C 805.9375 407.722656 806.003906 406.359375 806.003906 404.996094 C 806.003906 403.628906 805.9375 402.265625 805.804688 400.90625 C 805.671875 399.550781 805.46875 398.199219 805.203125 396.859375 C 804.9375 395.523438 804.605469 394.199219 804.210938 392.890625 C 803.8125 391.585938 803.355469 390.300781 802.832031 389.039062 C 802.308594 387.777344 801.726562 386.546875 801.082031 385.34375 C 800.4375 384.136719 799.738281 382.96875 798.980469 381.832031 C 798.222656 380.699219 797.410156 379.601562 796.542969 378.546875 C 795.675781 377.492188 794.761719 376.480469 793.792969 375.515625 Z M 793.792969 375.515625 " fill-opacity="1" fill-rule="nonzero"/><g clip-path="url(#abb8d37e55)"><path fill="#ffffff" d="M 486.382812 641.238281 C 485.015625 641.238281 483.65625 641.304688 482.296875 641.4375 C 480.9375 641.574219 479.589844 641.773438 478.25 642.039062 C 476.910156 642.304688 475.585938 642.636719 474.28125 643.035156 C 472.972656 643.429688 471.691406 643.890625 470.429688 644.410156 C 469.167969 644.933594 467.933594 645.515625 466.730469 646.160156 C 465.527344 646.804688 464.355469 647.503906 463.21875 648.265625 C 462.085938 649.023438 460.988281 649.835938 459.933594 650.703125 C 458.878906 651.566406 457.867188 652.484375 456.902344 653.449219 C 455.9375 654.414062 455.023438 655.425781 454.15625 656.480469 C 453.289062 657.535156 452.476562 658.632812 451.71875 659.765625 C 450.960938 660.902344 450.257812 662.070312 449.613281 663.277344 C 448.972656 664.480469 448.386719 665.710938 447.867188 666.972656 C 447.34375 668.234375 446.882812 669.519531 446.488281 670.824219 C 446.089844 672.132812 445.757812 673.457031 445.492188 674.792969 C 445.226562 676.132812 445.027344 677.484375 444.894531 678.839844 C 444.757812 680.199219 444.691406 681.5625 444.691406 682.929688 L 444.691406 724.617188 L 83.378906 724.617188 L 83.378906 85.371094 L 444.691406 85.371094 L 444.691406 127.0625 C 444.691406 128.429688 444.757812 129.789062 444.894531 131.148438 C 445.027344 132.507812 445.226562 133.855469 445.492188 135.195312 C 445.757812 136.535156 446.089844 137.859375 446.488281 139.164062 C 446.882812 140.472656 447.34375 141.753906 447.867188 143.015625 C 448.386719 144.277344 448.972656 145.511719 449.613281 146.714844 C 450.257812 147.917969 450.960938 149.089844 451.71875 150.222656 C 452.476562 151.359375 453.289062 152.453125 454.15625 153.511719 C 455.023438 154.566406 455.9375 155.578125 456.902344 156.542969 C 457.867188 157.507812 458.878906 158.421875 459.933594 159.289062 C 460.988281 160.15625 462.085938 160.96875 463.21875 161.726562 C 464.355469 162.484375 465.527344 163.1875 466.730469 163.828125 C 467.933594 164.472656 469.167969 165.054688 470.429688 165.578125 C 471.691406 166.101562 472.972656 166.5625 474.28125 166.957031 C 475.585938 167.355469 476.910156 167.683594 478.25 167.953125 C 479.589844 168.21875 480.9375 168.417969 482.296875 168.550781 C 483.65625 168.6875 485.015625 168.753906 486.382812 168.753906 C 487.746094 168.753906 489.109375 168.6875 490.46875 168.550781 C 491.828125 168.417969 493.175781 168.21875 494.515625 167.953125 C 495.855469 167.683594 497.175781 167.355469 498.484375 166.957031 C 499.789062 166.5625 501.074219 166.101562 502.335938 165.578125 C 503.597656 165.054688 504.832031 164.472656 506.035156 163.828125 C 507.238281 163.1875 508.410156 162.484375 509.542969 161.726562 C 510.679688 160.96875 511.773438 160.15625 512.828125 159.289062 C 513.886719 158.421875 514.894531 157.507812 515.863281 156.542969 C 516.828125 155.578125 517.742188 154.566406 518.609375 153.511719 C 519.476562 152.453125 520.289062 151.359375 521.046875 150.222656 C 521.804688 149.089844 522.503906 147.917969 523.148438 146.714844 C 523.792969 145.511719 524.375 144.277344 524.898438 143.015625 C 525.421875 141.753906 525.878906 140.472656 526.277344 139.164062 C 526.671875 137.859375 527.003906 136.535156 527.269531 135.195312 C 527.539062 133.855469 527.738281 132.507812 527.871094 131.148438 C 528.003906 129.789062 528.070312 128.429688 528.070312 127.0625 L 528.070312 71.476562 C 528.070312 70.339844 528.042969 69.203125 527.988281 68.066406 C 527.933594 66.929688 527.847656 65.796875 527.738281 64.664062 C 527.625 63.535156 527.488281 62.40625 527.320312 61.28125 C 527.152344 60.15625 526.957031 59.035156 526.738281 57.921875 C 526.515625 56.804688 526.265625 55.695312 525.988281 54.59375 C 525.714844 53.488281 525.410156 52.394531 525.082031 51.304688 C 524.75 50.21875 524.394531 49.136719 524.011719 48.066406 C 523.628906 46.996094 523.21875 45.9375 522.78125 44.886719 C 522.347656 43.835938 521.886719 42.796875 521.402344 41.769531 C 520.914062 40.742188 520.402344 39.726562 519.867188 38.722656 C 519.332031 37.71875 518.769531 36.730469 518.1875 35.753906 C 517.601562 34.777344 516.992188 33.820312 516.363281 32.875 C 515.730469 31.929688 515.074219 31 514.398438 30.085938 C 513.722656 29.171875 513.023438 28.277344 512.300781 27.394531 C 511.578125 26.515625 510.835938 25.65625 510.074219 24.8125 C 509.308594 23.972656 508.523438 23.148438 507.722656 22.34375 C 506.917969 21.539062 506.09375 20.757812 505.25 19.992188 C 504.410156 19.230469 503.546875 18.484375 502.667969 17.765625 C 501.789062 17.042969 500.894531 16.34375 499.980469 15.667969 C 499.066406 14.988281 498.136719 14.335938 497.191406 13.703125 C 496.246094 13.070312 495.285156 12.464844 494.308594 11.878906 C 493.335938 11.292969 492.347656 10.734375 491.34375 10.199219 C 490.339844 9.660156 489.324219 9.148438 488.296875 8.664062 C 487.269531 8.179688 486.230469 7.71875 485.179688 7.28125 C 484.128906 6.847656 483.066406 6.4375 481.996094 6.054688 C 480.925781 5.671875 479.847656 5.316406 478.757812 4.984375 C 477.671875 4.65625 476.574219 4.351562 475.472656 4.074219 C 474.367188 3.800781 473.257812 3.550781 472.144531 3.328125 C 471.027344 3.105469 469.910156 2.910156 468.785156 2.746094 C 467.660156 2.578125 466.53125 2.4375 465.398438 2.328125 C 464.269531 2.214844 463.132812 2.132812 462 2.078125 C 460.863281 2.019531 459.726562 1.992188 458.589844 1.992188 L 69.484375 1.992188 C 68.347656 1.992188 67.210938 2.019531 66.074219 2.078125 C 64.9375 2.132812 63.804688 2.214844 62.671875 2.328125 C 61.539062 2.4375 60.414062 2.578125 59.289062 2.746094 C 58.164062 2.910156 57.042969 3.105469 55.925781 3.328125 C 54.8125 3.550781 53.703125 3.800781 52.601562 4.074219 C 51.496094 4.351562 50.402344 4.65625 49.3125 4.984375 C 48.226562 5.316406 47.144531 5.671875 46.074219 6.054688 C 45.003906 6.4375 43.945312 6.847656 42.894531 7.28125 C 41.84375 7.71875 40.804688 8.179688 39.773438 8.664062 C 38.746094 9.148438 37.730469 9.660156 36.730469 10.199219 C 35.726562 10.734375 34.738281 11.292969 33.761719 11.878906 C 32.785156 12.464844 31.824219 13.070312 30.878906 13.703125 C 29.933594 14.335938 29.003906 14.988281 28.09375 15.667969 C 27.179688 16.34375 26.28125 17.042969 25.402344 17.765625 C 24.523438 18.484375 23.664062 19.230469 22.820312 19.992188 C 21.980469 20.757812 21.15625 21.539062 20.351562 22.34375 C 19.546875 23.148438 18.761719 23.972656 18 24.8125 C 17.234375 25.65625 16.492188 26.515625 15.773438 27.394531 C 15.050781 28.277344 14.351562 29.171875 13.671875 30.085938 C 12.996094 31 12.339844 31.929688 11.710938 32.875 C 11.078125 33.820312 10.46875 34.777344 9.886719 35.753906 C 9.300781 36.730469 8.742188 37.71875 8.203125 38.722656 C 7.667969 39.726562 7.15625 40.742188 6.671875 41.769531 C 6.183594 42.796875 5.722656 43.835938 5.289062 44.886719 C 4.855469 45.9375 4.445312 46.996094 4.0625 48.066406 C 3.679688 49.136719 3.320312 50.21875 2.992188 51.304688 C 2.660156 52.394531 2.359375 53.488281 2.082031 54.59375 C 1.804688 55.695312 1.558594 56.804688 1.335938 57.921875 C 1.113281 59.035156 0.917969 60.15625 0.753906 61.28125 C 0.585938 62.40625 0.445312 63.535156 0.335938 64.664062 C 0.222656 65.796875 0.140625 66.929688 0.0820312 68.066406 C 0.0273438 69.203125 0 70.339844 0 71.476562 L 0 738.515625 C 0 739.652344 0.0273438 740.789062 0.0820312 741.925781 C 0.140625 743.058594 0.222656 744.195312 0.335938 745.324219 C 0.445312 746.457031 0.585938 747.585938 0.753906 748.710938 C 0.917969 749.835938 1.113281 750.953125 1.335938 752.070312 C 1.558594 753.183594 1.804688 754.292969 2.082031 755.398438 C 2.359375 756.5 2.660156 757.597656 2.992188 758.683594 C 3.320312 759.773438 3.679688 760.851562 4.0625 761.921875 C 4.445312 762.992188 4.855469 764.054688 5.289062 765.105469 C 5.722656 766.15625 6.183594 767.195312 6.671875 768.222656 C 7.15625 769.25 7.667969 770.265625 8.203125 771.269531 C 8.742188 772.269531 9.300781 773.261719 9.886719 774.234375 C 10.46875 775.210938 11.078125 776.171875 11.710938 777.117188 C 12.339844 778.0625 12.996094 778.992188 13.671875 779.90625 C 14.351562 780.820312 15.050781 781.714844 15.773438 782.59375 C 16.492188 783.472656 17.234375 784.332031 18 785.175781 C 18.761719 786.019531 19.546875 786.84375 20.351562 787.648438 C 21.15625 788.449219 21.980469 789.234375 22.820312 790 C 23.664062 790.761719 24.523438 791.503906 25.402344 792.226562 C 26.28125 792.945312 27.179688 793.648438 28.09375 794.324219 C 29.003906 795 29.933594 795.65625 30.878906 796.289062 C 31.824219 796.917969 32.785156 797.527344 33.761719 798.113281 C 34.738281 798.695312 35.726562 799.257812 36.730469 799.792969 C 37.730469 800.328125 38.746094 800.839844 39.773438 801.328125 C 40.804688 801.8125 41.84375 802.273438 42.894531 802.707031 C 43.945312 803.144531 45.003906 803.554688 46.074219 803.9375 C 47.144531 804.320312 48.226562 804.675781 49.3125 805.003906 C 50.402344 805.335938 51.496094 805.640625 52.601562 805.914062 C 53.703125 806.191406 54.8125 806.441406 55.925781 806.664062 C 57.042969 806.882812 58.164062 807.078125 59.289062 807.246094 C 60.414062 807.414062 61.539062 807.550781 62.671875 807.664062 C 63.804688 807.773438 64.9375 807.859375 66.074219 807.914062 C 67.210938 807.96875 68.347656 807.996094 69.484375 807.996094 L 458.589844 807.996094 C 459.726562 807.996094 460.863281 807.96875 462 807.914062 C 463.132812 807.859375 464.269531 807.773438 465.398438 807.664062 C 466.53125 807.550781 467.660156 807.414062 468.785156 807.246094 C 469.910156 807.078125 471.027344 806.882812 472.144531 806.664062 C 473.257812 806.441406 474.367188 806.191406 475.472656 805.914062 C 476.574219 805.640625 477.671875 805.335938 478.757812 805.003906 C 479.847656 804.675781 480.925781 804.320312 481.996094 803.9375 C 483.066406 803.554688 484.128906 803.144531 485.179688 802.707031 C 486.230469 802.273438 487.269531 801.8125 488.296875 801.328125 C 489.324219 800.839844 490.339844 800.328125 491.34375 799.792969 C 492.347656 799.257812 493.335938 798.695312 494.308594 798.113281 C 495.285156 797.527344 496.246094 796.917969 497.191406 796.289062 C 498.136719 795.65625 499.066406 795 499.980469 794.324219 C 500.894531 793.648438 501.789062 792.945312 502.667969 792.226562 C 503.546875 791.503906 504.410156 790.761719 505.25 790 C 506.09375 789.234375 506.917969 788.449219 507.722656 787.648438 C 508.523438 786.84375 509.308594 786.019531 510.074219 785.175781 C 510.835938 784.335938 511.578125 783.472656 512.300781 782.59375 C 513.023438 781.714844 513.722656 780.820312 514.398438 779.90625 C 515.074219 778.992188 515.730469 778.0625 516.363281 777.117188 C 516.992188 776.171875 517.601562 775.210938 518.1875 774.234375 C 518.769531 773.261719 519.332031 772.273438 519.867188 771.269531 C 520.402344 770.265625 520.914062 769.25 521.402344 768.222656 C 521.886719 767.195312 522.347656 766.15625 522.78125 765.105469 C 523.21875 764.054688 523.628906 762.992188 524.011719 761.921875 C 524.394531 760.851562 524.75 759.773438 525.082031 758.683594 C 525.410156 757.597656 525.714844 756.5 525.988281 755.398438 C 526.265625 754.292969 526.515625 753.183594 526.738281 752.070312 C 526.957031 750.953125 527.152344 749.835938 527.320312 748.710938 C 527.488281 747.585938 527.625 746.457031 527.738281 745.324219 C 527.847656 744.195312 527.933594 743.058594 527.988281 741.925781 C 528.042969 740.789062 528.070312 739.652344 528.070312 738.515625 L 528.070312 682.929688 C 528.070312 681.5625 528.003906 680.199219 527.871094 678.839844 C 527.738281 677.484375 527.539062 676.132812 527.269531 674.792969 C 527.003906 673.457031 526.671875 672.132812 526.277344 670.824219 C 525.878906 669.519531 525.421875 668.234375 524.898438 666.972656 C 524.375 665.710938 523.792969 664.480469 523.148438 663.277344 C 522.503906 662.070312 521.804688 660.902344 521.046875 659.765625 C 520.289062 658.632812 519.476562 657.535156 518.609375 656.480469 C 517.742188 655.425781 516.828125 654.414062 515.863281 653.449219 C 514.894531 652.484375 513.886719 651.566406 512.828125 650.703125 C 511.773438 649.835938 510.679688 649.023438 509.542969 648.265625 C 508.410156 647.503906 507.238281 646.804688 506.035156 646.160156 C 504.832031 645.515625 503.597656 644.933594 502.335938 644.410156 C 501.074219 643.890625 499.789062 643.429688 498.484375 643.035156 C 497.175781 642.636719 495.855469 642.304688 494.515625 642.039062 C 493.175781 641.773438 491.828125 641.574219 490.46875 641.4375 C 489.109375 641.304688 487.746094 641.238281 486.382812 641.238281 Z M 486.382812 641.238281 " fill-opacity="1" fill-rule="nonzero"/></g></svg>