<svg xmlns="http://www.w3.org/2000/svg" xmlns:xlink="http://www.w3.org/1999/xlink" width="1500" zoomAndPan="magnify" viewBox="0 0 1125 374.999991" height="500" preserveAspectRatio="xMidYMid meet" version="1.0"><defs><g/></defs><g fill="#fbd160" fill-opacity="1"><g transform="translate(42.270497, 258.033258)"><g><path d="M 7.03125 0 L 7.03125 -16.765625 L 13.859375 -17.390625 C 17.867188 -17.796875 19.875 -19.726562 19.875 -23.1875 L 19.875 -119.421875 L 8.078125 -120.046875 L 8.078125 -137.640625 L 108.03125 -137.640625 L 108.03125 -103.28125 L 86.921875 -101.828125 L 86.921875 -110.109375 C 86.921875 -112.453125 86.578125 -114.101562 85.890625 -115.0625 C 85.203125 -116.03125 83.546875 -116.515625 80.921875 -116.515625 L 45.125 -116.515625 L 45.125 -79.890625 L 96.03125 -79.890625 L 96.03125 -58.78125 L 45.125 -58.78125 L 45.125 -18.21875 L 63.546875 -17.59375 L 63.546875 0 Z M 7.03125 0 "/></g></g></g><g fill="#ffffff" fill-opacity="1"><g transform="translate(150.241635, 252.783258)"><g><path d="M 116.515625 -16.34375 L 116.515625 0 L 83 0 L 83 -13.453125 C 75.40625 -2.691406 64.226562 2.6875 49.46875 2.6875 C 28.082031 2.6875 17.390625 -9.242188 17.390625 -33.109375 L 17.390625 -80.921875 C 17.390625 -84.648438 15.664062 -86.582031 12.21875 -86.71875 L 5.59375 -87.140625 L 5.59375 -104.109375 L 42.015625 -104.109375 L 42.015625 -38.5 C 42.015625 -31.1875 43.046875 -25.664062 45.109375 -21.9375 C 47.179688 -18.207031 51.457031 -16.34375 57.9375 -16.34375 C 64.425781 -16.34375 69.632812 -18.34375 73.5625 -22.34375 C 77.5 -26.351562 79.46875 -31.1875 79.46875 -36.84375 L 79.46875 -80.515625 C 79.46875 -82.722656 79.085938 -84.273438 78.328125 -85.171875 C 77.578125 -86.066406 76.234375 -86.582031 74.296875 -86.71875 L 67.671875 -87.140625 L 67.671875 -104.109375 L 104.109375 -104.109375 L 104.109375 -22.96875 C 104.109375 -20.757812 104.453125 -19.273438 105.140625 -18.515625 C 105.828125 -17.765625 107.207031 -17.25 109.28125 -16.96875 Z M 116.515625 -16.34375 "/></g></g></g><g fill="#ffffff" fill-opacity="1"><g transform="translate(263.23491, 252.783258)"><g><path d="M 29.796875 -126.046875 L 43.25 -126.046875 L 43.25 -104.109375 L 70.78125 -104.109375 L 68.71875 -86.71875 L 43.25 -86.71875 L 43.25 -32.28125 C 43.25 -26.21875 44.351562 -21.976562 46.5625 -19.5625 C 48.769531 -17.144531 52.1875 -15.9375 56.8125 -15.9375 C 61.4375 -15.9375 66.09375 -17.382812 70.78125 -20.28125 L 77 -4.34375 C 70.09375 0.476562 61.328125 2.890625 50.703125 2.890625 C 44.492188 2.890625 39.25 2.097656 34.96875 0.515625 C 30.695312 -1.066406 27.523438 -2.820312 25.453125 -4.75 C 23.390625 -6.6875 21.804688 -9.515625 20.703125 -13.234375 C 19.597656 -16.960938 18.972656 -19.894531 18.828125 -22.03125 C 18.691406 -24.175781 18.625 -27.316406 18.625 -31.453125 L 18.625 -86.71875 L 3.9375 -86.71875 L 6 -101.828125 C 12.488281 -102.378906 17.390625 -104.691406 20.703125 -108.765625 C 24.015625 -112.835938 27.046875 -118.597656 29.796875 -126.046875 Z M 29.796875 -126.046875 "/></g></g></g><g fill="#ffffff" fill-opacity="1"><g transform="translate(331.940585, 252.783258)"><g><path d="M 116.515625 -16.34375 L 116.515625 0 L 83 0 L 83 -13.453125 C 75.40625 -2.691406 64.226562 2.6875 49.46875 2.6875 C 28.082031 2.6875 17.390625 -9.242188 17.390625 -33.109375 L 17.390625 -80.921875 C 17.390625 -84.648438 15.664062 -86.582031 12.21875 -86.71875 L 5.59375 -87.140625 L 5.59375 -104.109375 L 42.015625 -104.109375 L 42.015625 -38.5 C 42.015625 -31.1875 43.046875 -25.664062 45.109375 -21.9375 C 47.179688 -18.207031 51.457031 -16.34375 57.9375 -16.34375 C 64.425781 -16.34375 69.632812 -18.34375 73.5625 -22.34375 C 77.5 -26.351562 79.46875 -31.1875 79.46875 -36.84375 L 79.46875 -80.515625 C 79.46875 -82.722656 79.085938 -84.273438 78.328125 -85.171875 C 77.578125 -86.066406 76.234375 -86.582031 74.296875 -86.71875 L 67.671875 -87.140625 L 67.671875 -104.109375 L 104.109375 -104.109375 L 104.109375 -22.96875 C 104.109375 -20.757812 104.453125 -19.273438 105.140625 -18.515625 C 105.828125 -17.765625 107.207031 -17.25 109.28125 -16.96875 Z M 116.515625 -16.34375 "/></g></g></g><g fill="#ffffff" fill-opacity="1"><g transform="translate(444.933872, 252.783258)"><g><path d="M 19.65625 -23.1875 L 19.65625 -80.515625 C 19.65625 -82.722656 19.273438 -84.273438 18.515625 -85.171875 C 17.765625 -86.066406 16.421875 -86.582031 14.484375 -86.71875 L 5.796875 -87.34375 L 5.796875 -104.109375 L 40.765625 -104.109375 L 40.765625 -88.578125 C 43.253906 -93.960938 47.117188 -98.410156 52.359375 -101.921875 C 57.609375 -105.441406 63.644531 -107.203125 70.46875 -107.203125 C 77.300781 -107.203125 83.820312 -105.6875 90.03125 -102.65625 L 90.03125 -71.8125 L 70.78125 -70.375 L 70.78125 -79.890625 C 70.78125 -82.648438 70.09375 -84.375 68.71875 -85.0625 C 67.195312 -85.75 65.332031 -86.09375 63.125 -86.09375 C 57.601562 -86.09375 53.082031 -84.125 49.5625 -80.1875 C 46.050781 -76.257812 44.296875 -71.257812 44.296875 -65.1875 L 44.296875 -17.171875 L 62.296875 -16.34375 L 62.296875 0 L 6.828125 0 L 6.828125 -15.734375 L 13.65625 -16.34375 C 15.726562 -16.625 17.242188 -17.210938 18.203125 -18.109375 C 19.171875 -19.003906 19.65625 -20.695312 19.65625 -23.1875 Z M 19.65625 -23.1875 "/></g></g></g><g fill="#ffffff" fill-opacity="1"><g transform="translate(531.263878, 252.783258)"><g/></g></g><g fill="#ffffff" fill-opacity="1"><g transform="translate(563.339192, 252.783258)"><g/></g></g><g fill="#ffffff" fill-opacity="1"><g transform="translate(595.414507, 252.783258)"><g/></g></g><g fill="#ffffff" fill-opacity="1"><g transform="translate(627.489827, 252.783258)"><g/></g></g><g fill="#ffffff" fill-opacity="1"><g transform="translate(659.565136, 252.783258)"><g/></g></g><g fill="#ffffff" fill-opacity="1"><g transform="translate(691.640445, 252.783258)"><g/></g></g><g fill="#ffffff" fill-opacity="1"><g transform="translate(723.727809, 252.783258)"><g><path d="M 54.4375 -15.109375 C 69.476562 -15.109375 77 -27.25 77 -51.53125 C 77 -63.8125 75.304688 -73.125 71.921875 -79.46875 C 68.535156 -85.820312 62.875 -89 54.9375 -89 C 47.007812 -89 41.179688 -85.960938 37.453125 -79.890625 C 33.734375 -73.816406 31.875 -65.535156 31.875 -55.046875 C 31.875 -35.597656 35.460938 -23.390625 42.640625 -18.421875 C 45.804688 -16.210938 49.738281 -15.109375 54.4375 -15.109375 Z M 6.828125 -52.15625 C 6.828125 -62.363281 8.34375 -71.226562 11.375 -78.75 C 14.414062 -86.269531 18.488281 -92.03125 23.59375 -96.03125 C 33.394531 -103.476562 44.226562 -107.203125 56.09375 -107.203125 C 64.363281 -107.203125 71.363281 -105.859375 77.09375 -103.171875 C 82.820312 -100.484375 87.304688 -97.378906 90.546875 -93.859375 C 93.785156 -90.335938 96.546875 -85.226562 98.828125 -78.53125 C 101.109375 -71.84375 102.25 -63.945312 102.25 -54.84375 C 102.25 -35.800781 97.625 -21.378906 88.375 -11.578125 C 79.132812 -1.785156 67.300781 3.109375 52.875 3.109375 C 38.457031 3.109375 27.175781 -1.546875 19.03125 -10.859375 C 10.894531 -20.179688 6.828125 -33.945312 6.828125 -52.15625 Z M 6.828125 -52.15625 "/></g></g></g><g fill="#ffffff" fill-opacity="1"><g transform="translate(823.683137, 252.783258)"><g><path d="M 5.59375 -87.34375 L 5.59375 -104.109375 L 40.5625 -104.109375 L 40.5625 -90.65625 C 48.289062 -101.6875 58.878906 -107.203125 72.328125 -107.203125 C 85.785156 -107.203125 94.859375 -101.6875 99.546875 -90.65625 C 107.273438 -101.6875 117.765625 -107.203125 131.015625 -107.203125 C 140.941406 -107.203125 148.597656 -104.203125 153.984375 -98.203125 C 159.367188 -92.203125 162.0625 -83.203125 162.0625 -71.203125 L 162.0625 -17.171875 L 173.859375 -16.5625 L 173.859375 0 L 124.59375 0 L 124.59375 -15.734375 L 131.421875 -16.34375 C 133.492188 -16.625 134.976562 -17.210938 135.875 -18.109375 C 136.769531 -19.003906 137.285156 -20.625 137.421875 -22.96875 L 137.421875 -65.8125 C 137.421875 -73.40625 136.554688 -79.03125 134.828125 -82.6875 C 133.109375 -86.34375 129.078125 -88.171875 122.734375 -88.171875 C 116.390625 -88.171875 111.523438 -86.238281 108.140625 -82.375 C 104.765625 -78.507812 103.078125 -73.332031 103.078125 -66.84375 L 103.078125 -17.171875 L 114.453125 -16.5625 L 114.453125 0 L 65.609375 0 L 65.609375 -15.734375 L 72.4375 -16.34375 C 74.507812 -16.625 76.023438 -17.210938 76.984375 -18.109375 C 77.953125 -19.003906 78.4375 -20.695312 78.4375 -23.1875 L 78.4375 -65.8125 C 78.4375 -73.40625 77.570312 -79.03125 75.84375 -82.6875 C 74.125 -86.34375 70.054688 -88.171875 63.640625 -88.171875 C 57.222656 -88.171875 52.359375 -86.171875 49.046875 -82.171875 C 45.734375 -78.171875 44.078125 -73.203125 44.078125 -67.265625 L 44.078125 -17.171875 L 55.265625 -16.5625 L 55.265625 0 L 6.421875 0 L 6.421875 -15.734375 L 13.25 -16.34375 C 15.3125 -16.625 16.828125 -17.210938 17.796875 -18.109375 C 18.765625 -19.003906 19.25 -20.695312 19.25 -23.1875 L 19.453125 -23.1875 L 19.453125 -80.296875 C 19.453125 -82.648438 19.070312 -84.273438 18.3125 -85.171875 C 17.550781 -86.066406 16.207031 -86.582031 14.28125 -86.71875 Z M 5.59375 -87.34375 "/></g></g></g><g fill="#ffffff" fill-opacity="1"><g transform="translate(993.588, 252.783258)"><g><path d="M 58.78125 -107.203125 C 69.125 -107.203125 77.332031 -104.679688 83.40625 -99.640625 C 89.476562 -94.609375 92.515625 -87.539062 92.515625 -78.4375 C 92.515625 -72.363281 91.203125 -67.015625 88.578125 -62.390625 C 85.960938 -57.773438 82.722656 -54.15625 78.859375 -51.53125 C 74.992188 -48.914062 70.300781 -46.78125 64.78125 -45.125 C 55.539062 -42.363281 45.125 -40.984375 33.53125 -40.984375 C 33.945312 -33.671875 36.222656 -27.769531 40.359375 -23.28125 C 44.492188 -18.800781 50.835938 -16.5625 59.390625 -16.5625 C 67.953125 -16.5625 76.507812 -19.597656 85.0625 -25.671875 L 92.921875 -8.90625 C 90.171875 -6.414062 85.515625 -3.859375 78.953125 -1.234375 C 72.398438 1.378906 64.914062 2.6875 56.5 2.6875 C 39.664062 2.6875 27.316406 -1.96875 19.453125 -11.28125 C 11.585938 -20.59375 7.65625 -33.390625 7.65625 -49.671875 C 7.65625 -65.953125 12.140625 -79.609375 21.109375 -90.640625 C 30.078125 -101.679688 42.632812 -107.203125 58.78125 -107.203125 Z M 49.359375 -59.921875 C 54.398438 -60.816406 59.054688 -62.816406 63.328125 -65.921875 C 67.609375 -69.023438 69.75 -72.71875 69.75 -77 C 69.75 -85.414062 65.609375 -89.625 57.328125 -89.625 C 49.597656 -89.625 43.664062 -86.550781 39.53125 -80.40625 C 35.394531 -74.269531 33.117188 -66.921875 32.703125 -58.359375 C 38.773438 -58.503906 44.328125 -59.023438 49.359375 -59.921875 Z M 49.359375 -59.921875 "/></g></g></g><g fill="#fbd160" fill-opacity="1"><g transform="translate(551.114122, 261.046984)"><g><path d="M 7.03125 0 L 7.03125 -16.75 L 13.859375 -17.375 C 17.859375 -17.789062 19.859375 -19.71875 19.859375 -23.15625 L 19.859375 -119.328125 L 8.0625 -119.953125 L 8.0625 -137.53125 L 107.953125 -137.53125 L 107.953125 -103.203125 L 86.859375 -101.75 L 86.859375 -110.03125 C 86.859375 -112.375 86.515625 -114.023438 85.828125 -114.984375 C 85.140625 -115.953125 83.484375 -116.4375 80.859375 -116.4375 L 45.078125 -116.4375 L 45.078125 -79.828125 L 95.96875 -79.828125 L 95.96875 -58.734375 L 45.078125 -58.734375 L 45.078125 -18.203125 L 63.484375 -17.578125 L 63.484375 0 Z M 7.03125 0 "/></g></g></g><g fill="#fbd160" fill-opacity="1"><g transform="translate(741.880732, 122.737379)"><g><path d="M -7.03125 0 L -7.03125 16.75 L -13.859375 17.375 C -17.859375 17.789062 -19.859375 19.71875 -19.859375 23.15625 L -19.859375 119.328125 L -8.0625 119.953125 L -8.0625 137.53125 L -107.953125 137.53125 L -107.953125 103.203125 L -86.859375 101.75 L -86.859375 110.03125 C -86.859375 112.375 -86.515625 114.023438 -85.828125 114.984375 C -85.140625 115.953125 -83.484375 116.4375 -80.859375 116.4375 L -45.078125 116.4375 L -45.078125 79.828125 L -95.96875 79.828125 L -95.96875 58.734375 L -45.078125 58.734375 L -45.078125 18.203125 L -63.484375 17.578125 L -63.484375 0 Z M -7.03125 0 "/></g></g></g></svg>