<svg xmlns="http://www.w3.org/2000/svg" xmlns:xlink="http://www.w3.org/1999/xlink" width="1080" zoomAndPan="magnify" viewBox="0 0 810 809.999993" height="1080" preserveAspectRatio="xMidYMid meet" version="1.0"><defs><clipPath id="bc25df3085"><path d="M 266 1.519531 L 810 1.519531 L 810 545 L 266 545 Z M 266 1.519531 " clip-rule="nonzero"/></clipPath><clipPath id="63452dcca2"><path d="M 2 1.519531 L 810 1.519531 L 810 808.519531 L 2 808.519531 Z M 2 1.519531 " clip-rule="nonzero"/></clipPath></defs><g clip-path="url(#bc25df3085)"><path fill="#000000" d="M 786.769531 1.519531 L 290.007812 1.519531 C 277.257812 1.519531 266.929688 11.847656 266.929688 24.597656 C 266.929688 37.347656 277.257812 47.679688 290.007812 47.679688 L 763.691406 47.679688 L 763.691406 521.386719 C 763.691406 534.140625 774.019531 544.46875 786.769531 544.46875 C 799.519531 544.46875 809.847656 534.140625 809.847656 521.386719 L 809.847656 24.597656 C 809.847656 11.847656 799.519531 1.519531 786.769531 1.519531 Z M 786.769531 1.519531 " fill-opacity="1" fill-rule="nonzero"/></g><g clip-path="url(#63452dcca2)"><path fill="#000000" d="M 801.777344 657.769531 L 672.828125 547.695312 C 663.144531 539.464844 648.617188 540.59375 640.226562 550.277344 C 631.996094 559.960938 633.125 574.488281 642.808594 582.882812 L 724.148438 652.285156 L 159.121094 652.285156 L 159.121094 87.222656 L 228.519531 168.566406 C 233.039062 173.894531 239.492188 176.636719 246.109375 176.636719 C 251.4375 176.636719 256.761719 174.863281 261.121094 171.148438 C 270.804688 162.917969 271.933594 148.230469 263.703125 138.546875 L 153.632812 9.589844 C 149.277344 4.425781 142.820312 1.519531 136.042969 1.519531 C 129.265625 1.519531 122.808594 4.425781 118.449219 9.589844 L 8.382812 138.546875 C 0.152344 148.230469 1.28125 162.757812 10.964844 171.148438 C 20.648438 179.382812 35.171875 178.25 43.566406 168.566406 L 112.964844 87.222656 L 112.964844 675.363281 C 112.964844 688.113281 123.292969 698.445312 136.042969 698.445312 L 724.148438 698.445312 L 642.808594 767.847656 C 633.125 776.078125 631.996094 790.765625 640.226562 800.449219 C 644.746094 805.773438 651.203125 808.519531 657.820312 808.519531 C 663.144531 808.519531 668.46875 806.742188 672.828125 803.03125 L 801.777344 692.957031 C 806.941406 688.597656 809.847656 682.140625 809.847656 675.363281 C 809.847656 668.585938 806.941406 662.289062 801.777344 657.769531 Z M 801.777344 657.769531 " fill-opacity="1" fill-rule="nonzero"/></g><path fill="#000000" d="M 317.445312 293.976562 C 305.339844 293.976562 299.207031 300.269531 299.207031 312.859375 L 299.207031 426.324219 C 299.207031 439.074219 305.339844 445.367188 317.769531 445.367188 C 330.355469 445.367188 336.652344 439.074219 336.652344 426.324219 L 336.652344 362.085938 C 336.652344 349.980469 339.394531 340.457031 345.042969 333.519531 C 350.691406 326.578125 358.277344 323.1875 368.121094 323.1875 C 376.675781 323.1875 382.808594 325.769531 386.519531 330.9375 C 390.234375 336.101562 392.007812 344.332031 392.007812 355.46875 L 392.007812 426.324219 C 392.007812 439.074219 398.300781 445.367188 410.890625 445.367188 C 423.15625 445.367188 429.449219 439.074219 429.449219 426.324219 L 429.449219 362.085938 C 429.449219 349.980469 432.195312 340.457031 437.84375 333.519531 C 443.492188 326.578125 451.078125 323.1875 460.921875 323.1875 C 469.636719 323.1875 475.929688 325.769531 479.644531 330.9375 C 483.355469 336.101562 485.128906 344.332031 485.128906 355.46875 L 485.128906 426.324219 C 485.128906 439.074219 491.261719 445.367188 503.691406 445.367188 C 516.277344 445.367188 522.574219 439.074219 522.574219 426.324219 L 522.574219 354.015625 C 522.574219 313.988281 506.109375 293.976562 473.347656 293.976562 C 462.375 293.976562 452.691406 296.558594 444.136719 301.5625 C 435.582031 306.566406 428.964844 313.667969 424.449219 322.542969 C 417.667969 303.5 403.304688 293.8125 381.519531 293.8125 C 371.351562 293.8125 362.472656 296.074219 354.566406 300.59375 C 346.820312 305.113281 340.6875 311.246094 336.328125 319.316406 L 336.328125 312.699219 C 335.683594 300.269531 329.550781 293.976562 317.445312 293.976562 Z M 317.445312 293.976562 " fill-opacity="1" fill-rule="nonzero"/><path fill="#000000" d="M 616.988281 301.238281 C 620.054688 295.265625 621.667969 288.972656 621.667969 282.515625 C 621.667969 272.671875 618.4375 264.921875 611.984375 259.597656 C 605.6875 254.269531 596.8125 251.6875 585.515625 251.6875 C 580.191406 251.6875 574.703125 252.496094 569.539062 253.949219 C 564.210938 255.402344 559.371094 257.660156 555.011719 260.566406 C 552.269531 262.503906 550.492188 264.921875 550.171875 267.667969 C 549.6875 270.25 550.171875 272.832031 551.460938 275.253906 C 552.753906 277.675781 554.691406 279.449219 557.273438 280.257812 C 558.078125 280.578125 558.886719 280.578125 559.691406 280.578125 C 561.628906 280.578125 563.726562 279.933594 565.664062 278.480469 C 568.730469 276.542969 571.636719 275.089844 574.539062 274.285156 C 577.445312 273.476562 580.351562 272.992188 583.257812 272.992188 C 596.003906 272.992188 597.621094 279.125 597.621094 284.292969 C 597.621094 287.519531 596.8125 290.910156 595.199219 294.136719 C 593.421875 297.527344 590.519531 301.5625 586.324219 305.757812 L 557.917969 335.941406 C 556.140625 337.875 554.851562 339.652344 553.722656 341.425781 C 552.589844 343.363281 552.109375 345.460938 552.109375 347.558594 C 552.109375 351.109375 553.074219 353.855469 555.011719 355.792969 C 556.949219 357.726562 559.855469 358.695312 563.726562 358.695312 L 615.695312 358.695312 C 622.636719 358.695312 626.507812 354.824219 626.507812 348.042969 C 626.507812 341.425781 622.472656 337.554688 615.695312 337.554688 L 586 337.554688 L 602.945312 319.800781 C 609.238281 313.34375 613.921875 307.050781 616.988281 301.238281 Z M 616.988281 301.238281 " fill-opacity="1" fill-rule="nonzero"/></svg>