<svg xmlns="http://www.w3.org/2000/svg" xmlns:xlink="http://www.w3.org/1999/xlink" width="1080" zoomAndPan="magnify" viewBox="0 0 810 809.999993" height="1080" preserveAspectRatio="xMidYMid meet" version="1.0"><path fill="#231f20" d="M 742.945312 374.324219 L 742.945312 341.394531 L 551.84375 341.394531 L 551.84375 307.902344 L 742.945312 307.902344 L 742.945312 66.984375 L 361.164062 66.984375 L 361.164062 307.902344 L 419.144531 307.902344 L 419.144531 341.394531 L 269.695312 341.394531 L 269.695312 307.902344 L 327.671875 307.902344 L 327.671875 66.984375 L 67.054688 66.984375 L 67.054688 307.902344 L 136.710938 307.902344 L 136.710938 341.394531 L 67.054688 341.394531 L 67.054688 742.734375 L 327.53125 742.734375 L 327.53125 530.664062 L 420.128906 530.664062 L 420.128906 564.15625 L 361.023438 564.15625 L 361.023438 742.875 L 577.035156 742.875 L 577.035156 564.15625 L 502.449219 564.15625 L 502.449219 530.664062 L 635.714844 530.664062 L 635.714844 564.15625 L 610.667969 564.15625 L 610.667969 742.875 L 742.945312 742.875 L 742.945312 564.15625 L 717.898438 564.15625 L 717.898438 530.664062 L 742.945312 530.664062 L 742.945312 496.1875 L 809.929688 496.1875 L 809.929688 810 L 0.0703125 810 L 0.0703125 0 L 809.929688 0 L 809.929688 374.324219 Z M 742.945312 374.324219 " fill-opacity="1" fill-rule="nonzero"/></svg>