<svg xmlns="http://www.w3.org/2000/svg" xmlns:xlink="http://www.w3.org/1999/xlink" width="1080" zoomAndPan="magnify" viewBox="0 0 810 809.999993" height="1080" preserveAspectRatio="xMidYMid meet" version="1.0"><defs><g/></defs><rect x="-81" width="972" fill="#ffffff" y="-80.999999" height="971.999992" fill-opacity="1"/><rect x="-81" width="972" fill="#ffffff" y="-80.999999" height="971.999992" fill-opacity="1"/><g fill="#fbd160" fill-opacity="1"><g transform="translate(27.139417, 679.586225)"><g><path d="M 27.828125 0 L 27.828125 -66.296875 L 54.84375 -68.75 C 70.664062 -70.382812 78.578125 -78.023438 78.578125 -91.671875 L 78.578125 -472.25 L 31.921875 -474.703125 L 31.921875 -544.265625 L 427.234375 -544.265625 L 427.234375 -408.40625 L 343.75 -402.671875 L 343.75 -435.421875 C 343.75 -444.691406 342.382812 -451.238281 339.65625 -455.0625 C 336.925781 -458.882812 330.378906 -460.796875 320.015625 -460.796875 L 178.421875 -460.796875 L 178.421875 -315.921875 L 379.765625 -315.921875 L 379.765625 -232.4375 L 178.421875 -232.4375 L 178.421875 -72.03125 L 251.265625 -69.5625 L 251.265625 0 Z M 27.828125 0 "/></g></g></g><g fill="#fbd160" fill-opacity="1"><g transform="translate(782.859503, 130.407661)"><g><path d="M -27.828125 0 L -27.828125 66.296875 L -54.84375 68.75 C -70.664062 70.382812 -78.578125 78.023438 -78.578125 91.671875 L -78.578125 472.25 L -31.921875 474.703125 L -31.921875 544.265625 L -427.234375 544.265625 L -427.234375 408.40625 L -343.75 402.671875 L -343.75 435.421875 C -343.75 444.691406 -342.382812 451.238281 -339.65625 455.0625 C -336.925781 458.882812 -330.378906 460.796875 -320.015625 460.796875 L -178.421875 460.796875 L -178.421875 315.921875 L -379.765625 315.921875 L -379.765625 232.4375 L -178.421875 232.4375 L -178.421875 72.03125 L -251.265625 69.5625 L -251.265625 0 Z M -27.828125 0 "/></g></g></g></svg>